<svg xmlns="http://www.w3.org/2000/svg" preserveAspectRatio="none" viewBox="0 0 100 1"><rect key="0" fill="#2563EB" height="0.2149212060000791" width="1" x="0" y="0.7850787939999209" />,<rect key="1" fill="#2563EB" height="0.42123768919418847" width="1" x="1" y="0.5787623108058115" />,<rect key="2" fill="#2563EB" height="0.5021871633001275" width="1" x="2" y="0.49781283669987253" />,<rect key="3" fill="#2563EB" height="0.37981132226137065" width="1" x="3" y="0.6201886777386294" />,<rect key="4" fill="#2563EB" height="0.425366099064376" width="1" x="4" y="0.574633900935624" />,<rect key="5" fill="#2563EB" height="0.4487837965713238" width="1" x="5" y="0.5512162034286763" />,<rect key="6" fill="#2563EB" height="0.4483798840763827" width="1" x="6" y="0.5516201159236174" />,<rect key="7" fill="#2563EB" height="0.639004577223528" width="1" x="7" y="0.360995422776472" />,<rect key="8" fill="#2563EB" height="0.697777802676856" width="1" x="8" y="0.30222219732314404" />,<rect key="9" fill="#2563EB" height="0.5862073696192388" width="1" x="9" y="0.4137926303807612" />,<rect key="10" fill="#2563EB" height="0.5386278291026436" width="1" x="10" y="0.4613721708973564" />,<rect key="11" fill="#2563EB" height="0.6608466901064297" width="1" x="11" y="0.3391533098935703" />,<rect key="12" fill="#2563EB" height="0.645471747801469" width="1" x="12" y="0.354528252198531" />,<rect key="13" fill="#2563EB" height="0.6160346850201209" width="1" x="13" y="0.38396531497987907" />,<rect key="14" fill="#2563EB" height="0.6632513863711472" width="1" x="14" y="0.3367486136288528" />,<rect key="15" fill="#2563EB" height="0.6602905767262417" width="1" x="15" y="0.3397094232737583" />,<rect key="16" fill="#2563EB" height="0.5997341804840265" width="1" x="16" y="0.4002658195159735" />,<rect key="17" fill="#2563EB" height="0.6119767430927291" width="1" x="17" y="0.3880232569072709" />,<rect key="18" fill="#2563EB" height="0.692298327085147" width="1" x="18" y="0.30770167291485295" />,<rect key="19" fill="#2563EB" height="0.6214797077377412" width="1" x="19" y="0.3785202922622588" />,<rect key="20" fill="#2563EB" height="0.5377382526624215" width="1" x="20" y="0.4622617473375785" />,<rect key="21" fill="#2563EB" height="0.7514595568347391" width="1" x="21" y="0.24854044316526092" />,<rect key="22" fill="#2563EB" height="0.7449202567622463" width="1" x="22" y="0.25507974323775373" />,<rect key="23" fill="#2563EB" height="0.5589831870523688" width="1" x="23" y="0.4410168129476312" />,<rect key="24" fill="#2563EB" height="0.7072885947358639" width="1" x="24" y="0.2927114052641361" />,<rect key="25" fill="#2563EB" height="0.7707898519689986" width="1" x="25" y="0.22921014803100137" />,<rect key="26" fill="#2563EB" height="0.628814056266564" width="1" x="26" y="0.37118594373343605" />,<rect key="27" fill="#2563EB" height="0.7594896547630845" width="1" x="27" y="0.2405103452369155" />,<rect key="28" fill="#2563EB" height="0.673166161210966" width="1" x="28" y="0.32683383878903405" />,<rect key="29" fill="#2563EB" height="0.6883527205311508" width="1" x="29" y="0.3116472794688492" />,<rect key="30" fill="#2563EB" height="0.6174031323708092" width="1" x="30" y="0.38259686762919076" />,<rect key="31" fill="#2563EB" height="0.6877658151218928" width="1" x="31" y="0.31223418487810717" />,<rect key="32" fill="#2563EB" height="0.6556993758483656" width="1" x="32" y="0.3443006241516344" />,<rect key="33" fill="#2563EB" height="0.5702750457532161" width="1" x="33" y="0.4297249542467839" />,<rect key="34" fill="#2563EB" height="0.6710040253252846" width="1" x="34" y="0.3289959746747154" />,<rect key="35" fill="#2563EB" height="0.6728531169847021" width="1" x="35" y="0.32714688301529793" />,<rect key="36" fill="#2563EB" height="0.6450858074480184" width="1" x="36" y="0.35491419255198164" />,<rect key="37" fill="#2563EB" height="0.5794082187166268" width="1" x="37" y="0.42059178128337316" />,<rect key="38" fill="#2563EB" height="0.6673673490712363" width="1" x="38" y="0.3326326509287637" />,<rect key="39" fill="#2563EB" height="0.6593239174447474" width="1" x="39" y="0.3406760825552526" />,<rect key="40" fill="#2563EB" height="0.5749019975936571" width="1" x="40" y="0.4250980024063429" />,<rect key="41" fill="#2563EB" height="0.7343677990016406" width="1" x="41" y="0.2656322009983594" />,<rect key="42" fill="#2563EB" height="0.7906620196335526" width="1" x="42" y="0.20933798036644735" />,<rect key="43" fill="#2563EB" height="0.6885394459685849" width="1" x="43" y="0.31146055403141515" />,<rect key="44" fill="#2563EB" height="0.6321088488464341" width="1" x="44" y="0.36789115115356585" />,<rect key="45" fill="#2563EB" height="0.7903568401085308" width="1" x="45" y="0.2096431598914692" />,<rect key="46" fill="#2563EB" height="0.7252705724143819" width="1" x="46" y="0.27472942758561814" />,<rect key="47" fill="#2563EB" height="0.8202585123665573" width="1" x="47" y="0.17974148763344266" />,<rect key="48" fill="#2563EB" height="0.5570750996823943" width="1" x="48" y="0.4429249003176057" />,<rect key="49" fill="#2563EB" height="0.7491493298538356" width="1" x="49" y="0.25085067014616436" />,<rect key="50" fill="#2563EB" height="0.7489132534702599" width="1" x="50" y="0.25108674652974006" />,<rect key="51" fill="#2563EB" height="0.6929935460731831" width="1" x="51" y="0.3070064539268169" />,<rect key="52" fill="#2563EB" height="0.6350965630954623" width="1" x="52" y="0.36490343690453775" />,<rect key="53" fill="#2563EB" height="0.6607847324440352" width="1" x="53" y="0.33921526755596476" />,<rect key="54" fill="#2563EB" height="0.6736843977021982" width="1" x="54" y="0.32631560229780177" />,<rect key="55" fill="#2563EB" height="0.7210306115289535" width="1" x="55" y="0.27896938847104646" />,<rect key="56" fill="#2563EB" height="1" width="1" x="56" y="0" />,<rect key="57" fill="#2563EB" height="0.9623215620795816" width="1" x="57" y="0.03767843792041836" />,<rect key="58" fill="#2563EB" height="0.8919221927037347" width="1" x="58" y="0.10807780729626526" />,<rect key="59" fill="#2563EB" height="0.8427998033536489" width="1" x="59" y="0.1572001966463511" />,<rect key="60" fill="#2563EB" height="0.9378401975055684" width="1" x="60" y="0.06215980249443165" />,<rect key="61" fill="#2563EB" height="0.8781088826267105" width="1" x="61" y="0.1218911173732895" />,<rect key="62" fill="#2563EB" height="0.8418678864450597" width="1" x="62" y="0.15813211355494028" />,<rect key="63" fill="#2563EB" height="0.8497558216933954" width="1" x="63" y="0.15024417830660464" />,<rect key="64" fill="#2563EB" height="0.6767092725959295" width="1" x="64" y="0.3232907274040705" />,<rect key="65" fill="#2563EB" height="0.5683843992387525" width="1" x="65" y="0.4316156007612475" />,<rect key="66" fill="#2563EB" height="0.6211694591958161" width="1" x="66" y="0.3788305408041839" />,<rect key="67" fill="#2563EB" height="0.6750392517648285" width="1" x="67" y="0.3249607482351715" />,<rect key="68" fill="#2563EB" height="0.6394326141972213" width="1" x="68" y="0.3605673858027787" />,<rect key="69" fill="#2563EB" height="0.6142030722772832" width="1" x="69" y="0.3857969277227168" />,<rect key="70" fill="#2563EB" height="0.6429335375337542" width="1" x="70" y="0.35706646246624585" />,<rect key="71" fill="#2563EB" height="0.6459246250039471" width="1" x="71" y="0.3540753749960529" />,<rect key="72" fill="#2563EB" height="0.5486740024367125" width="1" x="72" y="0.4513259975632875" />,<rect key="73" fill="#2563EB" height="0.6711328216374955" width="1" x="73" y="0.32886717836250445" />,<rect key="74" fill="#2563EB" height="0.6693042992712354" width="1" x="74" y="0.33069570072876464" />,<rect key="75" fill="#2563EB" height="0.5854634461600536" width="1" x="75" y="0.41453655383994636" />,<rect key="76" fill="#2563EB" height="0.5423058885351075" width="1" x="76" y="0.4576941114648925" />,<rect key="77" fill="#2563EB" height="0.7604329498399104" width="1" x="77" y="0.2395670501600896" />,<rect key="78" fill="#2563EB" height="0.7962784123836052" width="1" x="78" y="0.2037215876163948" />,<rect key="79" fill="#2563EB" height="0.6572836706335015" width="1" x="79" y="0.34271632936649854" />,<rect key="80" fill="#2563EB" height="0.6952564152016234" width="1" x="80" y="0.3047435847983766" />,<rect key="81" fill="#2563EB" height="0.7969052293421304" width="1" x="81" y="0.20309477065786963" />,<rect key="82" fill="#2563EB" height="0.6944950422966898" width="1" x="82" y="0.3055049577033102" />,<rect key="83" fill="#2563EB" height="0.7240650927169481" width="1" x="83" y="0.2759349072830519" />,<rect key="84" fill="#2563EB" height="0.32883503098273725" width="1" x="84" y="0.6711649690172627" />,<rect key="85" fill="#2563EB" height="0.3699338826096052" width="1" x="85" y="0.6300661173903948" />,<rect key="86" fill="#2563EB" height="0.374917266108731" width="1" x="86" y="0.625082733891269" />,<rect key="87" fill="#2563EB" height="0.4446633988160252" width="1" x="87" y="0.5553366011839749" />,<rect key="88" fill="#2563EB" height="0.36228901311103395" width="1" x="88" y="0.6377109868889661" />,<rect key="89" fill="#2563EB" height="0.38875702770016024" width="1" x="89" y="0.6112429722998398" />,<rect key="90" fill="#2563EB" height="0.4107035113435228" width="1" x="90" y="0.5892964886564772" />,<rect key="91" fill="#2563EB" height="0.3515791993541869" width="1" x="91" y="0.6484208006458131" />,<rect key="92" fill="#2563EB" height="0.40072614760255326" width="1" x="92" y="0.5992738523974468" />,<rect key="93" fill="#2563EB" height="0.3877517037172643" width="1" x="93" y="0.6122482962827357" />,<rect key="94" fill="#2563EB" height="0.37223692684924525" width="1" x="94" y="0.6277630731507547" />,<rect key="95" fill="#2563EB" height="0.4040688446419197" width="1" x="95" y="0.5959311553580803" />,<rect key="96" fill="#2563EB" height="0.41842971026002207" width="1" x="96" y="0.5815702897399779" />,<rect key="97" fill="#2563EB" height="0.2430435502311384" width="1" x="97" y="0.7569564497688616" />,<rect key="98" fill="#2563EB" height="0.06476739604240486" width="1" x="98" y="0.9352326039575951" />,<rect key="99" fill="#2563EB" height="0.011348193512376545" width="1" x="99" y="0.9886518064876234" /></svg>