<svg xmlns="http://www.w3.org/2000/svg" preserveAspectRatio="none" viewBox="0 0 100 1"><rect key="0" fill="#2563EB" height="0.12115966232200995" width="1" x="0" y="0.8788403376779901" />,<rect key="1" fill="#2563EB" height="0.5288914579907711" width="1" x="1" y="0.4711085420092289" />,<rect key="2" fill="#2563EB" height="0.635100011721379" width="1" x="2" y="0.364899988278621" />,<rect key="3" fill="#2563EB" height="0.5239520812202317" width="1" x="3" y="0.47604791877976826" />,<rect key="4" fill="#2563EB" height="0.291393767852363" width="1" x="4" y="0.708606232147637" />,<rect key="5" fill="#2563EB" height="0.456189157996576" width="1" x="5" y="0.543810842003424" />,<rect key="6" fill="#2563EB" height="0.5599481649844382" width="1" x="6" y="0.4400518350155618" />,<rect key="7" fill="#2563EB" height="0.7314803531094997" width="1" x="7" y="0.26851964689050034" />,<rect key="8" fill="#2563EB" height="0.6010351748633423" width="1" x="8" y="0.39896482513665765" />,<rect key="9" fill="#2563EB" height="0.6735026494275009" width="1" x="9" y="0.32649735057249907" />,<rect key="10" fill="#2563EB" height="0.6167721047784133" width="1" x="10" y="0.38322789522158673" />,<rect key="11" fill="#2563EB" height="0.7615845662964886" width="1" x="11" y="0.23841543370351137" />,<rect key="12" fill="#2563EB" height="0.4020020854356576" width="1" x="12" y="0.5979979145643424" />,<rect key="13" fill="#2563EB" height="0.7644678290738257" width="1" x="13" y="0.2355321709261743" />,<rect key="14" fill="#2563EB" height="0.5607485213257137" width="1" x="14" y="0.43925147867428627" />,<rect key="15" fill="#2563EB" height="0.6696020067276075" width="1" x="15" y="0.3303979932723925" />,<rect key="16" fill="#2563EB" height="0.6146110080328124" width="1" x="16" y="0.38538899196718757" />,<rect key="17" fill="#2563EB" height="0.7407564207864317" width="1" x="17" y="0.25924357921356833" />,<rect key="18" fill="#2563EB" height="0.42333987259874045" width="1" x="18" y="0.5766601274012595" />,<rect key="19" fill="#2563EB" height="0.6447134519567954" width="1" x="19" y="0.3552865480432046" />,<rect key="20" fill="#2563EB" height="0.6953645661570156" width="1" x="20" y="0.3046354338429844" />,<rect key="21" fill="#2563EB" height="0.707102973888646" width="1" x="21" y="0.29289702611135404" />,<rect key="22" fill="#2563EB" height="0.3924381227959047" width="1" x="22" y="0.6075618772040954" />,<rect key="23" fill="#2563EB" height="0.9021835238611646" width="1" x="23" y="0.09781647613883537" />,<rect key="24" fill="#2563EB" height="1" width="1" x="24" y="0" />,<rect key="25" fill="#2563EB" height="0.876210043250263" width="1" x="25" y="0.12378995674973703" />,<rect key="26" fill="#2563EB" height="0.8357332656825727" width="1" x="26" y="0.16426673431742733" />,<rect key="27" fill="#2563EB" height="0.6094585057566358" width="1" x="27" y="0.39054149424336415" />,<rect key="28" fill="#2563EB" height="0.9735990834708549" width="1" x="28" y="0.026400916529145113" />,<rect key="29" fill="#2563EB" height="0.7498329543200115" width="1" x="29" y="0.2501670456799885" />,<rect key="30" fill="#2563EB" height="0.4768625113324797" width="1" x="30" y="0.5231374886675203" />,<rect key="31" fill="#2563EB" height="0.48008285120502564" width="1" x="31" y="0.5199171487949743" />,<rect key="32" fill="#2563EB" height="0.805510929371884" width="1" x="32" y="0.19448907062811605" />,<rect key="33" fill="#2563EB" height="0.7591343001773591" width="1" x="33" y="0.24086569982264094" />,<rect key="34" fill="#2563EB" height="0.6694849065012961" width="1" x="34" y="0.3305150934987039" />,<rect key="35" fill="#2563EB" height="0.7378339350023124" width="1" x="35" y="0.2621660649976876" />,<rect key="36" fill="#2563EB" height="0.53948113389815" width="1" x="36" y="0.46051886610185" />,<rect key="37" fill="#2563EB" height="0.6133520188756113" width="1" x="37" y="0.3866479811243887" />,<rect key="38" fill="#2563EB" height="0.7564933715538362" width="1" x="38" y="0.24350662844616378" />,<rect key="39" fill="#2563EB" height="0.6575460163790801" width="1" x="39" y="0.34245398362091994" />,<rect key="40" fill="#2563EB" height="0.7590162780804248" width="1" x="40" y="0.24098372191957518" />,<rect key="41" fill="#2563EB" height="0.4735029159193236" width="1" x="41" y="0.5264970840806764" />,<rect key="42" fill="#2563EB" height="0.5790593551560664" width="1" x="42" y="0.42094064484393356" />,<rect key="43" fill="#2563EB" height="0.41065209038267786" width="1" x="43" y="0.5893479096173222" />,<rect key="44" fill="#2563EB" height="0.5895375143240017" width="1" x="44" y="0.4104624856759983" />,<rect key="45" fill="#2563EB" height="0.6025819986447931" width="1" x="45" y="0.3974180013552069" />,<rect key="46" fill="#2563EB" height="0.7397181594523315" width="1" x="46" y="0.26028184054766845" />,<rect key="47" fill="#2563EB" height="0.6185678332810359" width="1" x="47" y="0.38143216671896407" />,<rect key="48" fill="#2563EB" height="0.9001400023435369" width="1" x="48" y="0.09985999765646314" />,<rect key="49" fill="#2563EB" height="0.7203744686607774" width="1" x="49" y="0.27962553133922263" />,<rect key="50" fill="#2563EB" height="0.8248848819281978" width="1" x="50" y="0.17511511807180224" />,<rect key="51" fill="#2563EB" height="0.8644247919243726" width="1" x="51" y="0.1355752080756274" />,<rect key="52" fill="#2563EB" height="0.5247720140911979" width="1" x="52" y="0.4752279859088021" />,<rect key="53" fill="#2563EB" height="0.736333523800931" width="1" x="53" y="0.263666476199069" />,<rect key="54" fill="#2563EB" height="0.6804137687049617" width="1" x="54" y="0.31958623129503827" />,<rect key="55" fill="#2563EB" height="0.6348340320745004" width="1" x="55" y="0.3651659679254996" />,<rect key="56" fill="#2563EB" height="0.8299427325536338" width="1" x="56" y="0.17005726744636618" />,<rect key="57" fill="#2563EB" height="0.6968393484148409" width="1" x="57" y="0.30316065158515915" />,<rect key="58" fill="#2563EB" height="0.6870048578342525" width="1" x="58" y="0.31299514216574753" />,<rect key="59" fill="#2563EB" height="0.4953791353294042" width="1" x="59" y="0.5046208646705959" />,<rect key="60" fill="#2563EB" height="0.41327018172455315" width="1" x="60" y="0.5867298182754468" />,<rect key="61" fill="#2563EB" height="0.5575477676502871" width="1" x="61" y="0.44245223234971287" />,<rect key="62" fill="#2563EB" height="0.47648655004996127" width="1" x="62" y="0.5235134499500387" />,<rect key="63" fill="#2563EB" height="0.27520120799995834" width="1" x="63" y="0.7247987920000416" />,<rect key="64" fill="#2563EB" height="0.44062853170182703" width="1" x="64" y="0.559371468298173" />,<rect key="65" fill="#2563EB" height="0.4328098174395609" width="1" x="65" y="0.5671901825604391" />,<rect key="66" fill="#2563EB" height="0.5792772717907853" width="1" x="66" y="0.42072272820921475" />,<rect key="67" fill="#2563EB" height="0.5814005604486749" width="1" x="67" y="0.41859943955132506" />,<rect key="68" fill="#2563EB" height="0.5236804442105494" width="1" x="68" y="0.4763195557894506" />,<rect key="69" fill="#2563EB" height="0.47413755482276837" width="1" x="69" y="0.5258624451772316" />,<rect key="70" fill="#2563EB" height="0.8321606249179496" width="1" x="70" y="0.16783937508205038" />,<rect key="71" fill="#2563EB" height="0.6633799303840736" width="1" x="71" y="0.3366200696159264" />,<rect key="72" fill="#2563EB" height="0.47088781317437656" width="1" x="72" y="0.5291121868256234" />,<rect key="73" fill="#2563EB" height="0.3906439469628398" width="1" x="73" y="0.6093560530371602" />,<rect key="74" fill="#2563EB" height="0.5627982665089646" width="1" x="74" y="0.4372017334910354" />,<rect key="75" fill="#2563EB" height="0.44851723622601647" width="1" x="75" y="0.5514827637739835" />,<rect key="76" fill="#2563EB" height="0.6724497454981507" width="1" x="76" y="0.32755025450184927" />,<rect key="77" fill="#2563EB" height="0.5264187389070271" width="1" x="77" y="0.47358126109297294" />,<rect key="78" fill="#2563EB" height="0.8102258189230727" width="1" x="78" y="0.18977418107692734" />,<rect key="79" fill="#2563EB" height="0.7673580092118486" width="1" x="79" y="0.2326419907881514" />,<rect key="80" fill="#2563EB" height="0.5378407432697958" width="1" x="80" y="0.4621592567302042" />,<rect key="81" fill="#2563EB" height="0.6572487023879123" width="1" x="81" y="0.34275129761208767" />,<rect key="82" fill="#2563EB" height="0.5410888821588095" width="1" x="82" y="0.45891111784119054" />,<rect key="83" fill="#2563EB" height="0.34394694956941313" width="1" x="83" y="0.6560530504305868" />,<rect key="84" fill="#2563EB" height="0.6674301948587811" width="1" x="84" y="0.3325698051412189" />,<rect key="85" fill="#2563EB" height="0.48328360024689343" width="1" x="85" y="0.5167163997531066" />,<rect key="86" fill="#2563EB" height="0.9144256635806947" width="1" x="86" y="0.08557433641930534" />,<rect key="87" fill="#2563EB" height="0.7412198235029569" width="1" x="87" y="0.2587801764970431" />,<rect key="88" fill="#2563EB" height="0.49991749571403477" width="1" x="88" y="0.5000825042859652" />,<rect key="89" fill="#2563EB" height="0.8807687268370681" width="1" x="89" y="0.11923127316293192" />,<rect key="90" fill="#2563EB" height="0.7459707305475106" width="1" x="90" y="0.2540292694524894" />,<rect key="91" fill="#2563EB" height="0.439751868743596" width="1" x="91" y="0.560248131256404" />,<rect key="92" fill="#2563EB" height="0.4810184260192414" width="1" x="92" y="0.5189815739807586" />,<rect key="93" fill="#2563EB" height="0.37115239094108315" width="1" x="93" y="0.6288476090589168" />,<rect key="94" fill="#2563EB" height="0.2575222487886151" width="1" x="94" y="0.7424777512113849" />,<rect key="95" fill="#2563EB" height="0.5580410774150693" width="1" x="95" y="0.44195892258493075" />,<rect key="96" fill="#2563EB" height="0.1974376034139981" width="1" x="96" y="0.8025623965860019" />,<rect key="97" fill="#2563EB" height="0.0727254484148543" width="1" x="97" y="0.9272745515851457" />,<rect key="98" fill="#2563EB" height="0.007555557421045952" width="1" x="98" y="0.992444442578954" />,<rect key="99" fill="#2563EB" height="0.0011676336284020747" width="1" x="99" y="0.9988323663715979" /></svg>