
      <svg xmlns="http://www.w3.org/2000/svg" preserveAspectRatio="none" viewBox="0 0 100 1">
        <rect key="0" fill="#2563EB" height="0.09863404789706796" width="1" x="0" y="0.901365952102932" />,<rect key="1" fill="#2563EB" height="0.14180601584257743" width="1" x="1" y="0.8581939841574225" />,<rect key="2" fill="#2563EB" height="0.13592587399532305" width="1" x="2" y="0.8640741260046769" />,<rect key="3" fill="#2563EB" height="0.1445326062965954" width="1" x="3" y="0.8554673937034046" />,<rect key="4" fill="#2563EB" height="0.1520218402929306" width="1" x="4" y="0.8479781597070695" />,<rect key="5" fill="#2563EB" height="0.15514850373464384" width="1" x="5" y="0.8448514962653562" />,<rect key="6" fill="#2563EB" height="0.1570101641338235" width="1" x="6" y="0.8429898358661765" />,<rect key="7" fill="#2563EB" height="0.15151725023325846" width="1" x="7" y="0.8484827497667415" />,<rect key="8" fill="#2563EB" height="0.3162965027798182" width="1" x="8" y="0.6837034972201819" />,<rect key="9" fill="#2563EB" height="0.38003115403790283" width="1" x="9" y="0.6199688459620971" />,<rect key="10" fill="#2563EB" height="0.34272147333255265" width="1" x="10" y="0.6572785266674473" />,<rect key="11" fill="#2563EB" height="0.34689326896310213" width="1" x="11" y="0.6531067310368979" />,<rect key="12" fill="#2563EB" height="0.2860096404100626" width="1" x="12" y="0.7139903595899374" />,<rect key="13" fill="#2563EB" height="0.36021112984281944" width="1" x="13" y="0.6397888701571806" />,<rect key="14" fill="#2563EB" height="0.32792754858690676" width="1" x="14" y="0.6720724514130932" />,<rect key="15" fill="#2563EB" height="0.4379799221721286" width="1" x="15" y="0.5620200778278714" />,<rect key="16" fill="#2563EB" height="0.5807773137063454" width="1" x="16" y="0.41922268629365456" />,<rect key="17" fill="#2563EB" height="0.5793625821482569" width="1" x="17" y="0.42063741785174313" />,<rect key="18" fill="#2563EB" height="0.5283220802764169" width="1" x="18" y="0.4716779197235831" />,<rect key="19" fill="#2563EB" height="0.5682693226202256" width="1" x="19" y="0.43173067737977444" />,<rect key="20" fill="#2563EB" height="0.763718757688868" width="1" x="20" y="0.236281242311132" />,<rect key="21" fill="#2563EB" height="0.7284800215347158" width="1" x="21" y="0.2715199784652842" />,<rect key="22" fill="#2563EB" height="0.6731780510854601" width="1" x="22" y="0.32682194891453986" />,<rect key="23" fill="#2563EB" height="1" width="1" x="23" y="0" />,<rect key="24" fill="#2563EB" height="0.7152941613697132" width="1" x="24" y="0.28470583863028676" />,<rect key="25" fill="#2563EB" height="0.7000914501891372" width="1" x="25" y="0.2999085498108628" />,<rect key="26" fill="#2563EB" height="0.5784946601365797" width="1" x="26" y="0.4215053398634203" />,<rect key="27" fill="#2563EB" height="0.5966887559317073" width="1" x="27" y="0.40331124406829266" />,<rect key="28" fill="#2563EB" height="0.8918540494320782" width="1" x="28" y="0.10814595056792176" />,<rect key="29" fill="#2563EB" height="0.6322447940009583" width="1" x="29" y="0.36775520599904166" />,<rect key="30" fill="#2563EB" height="0.706852388679259" width="1" x="30" y="0.29314761132074096" />,<rect key="31" fill="#2563EB" height="0.9830297495644232" width="1" x="31" y="0.01697025043557676" />,<rect key="32" fill="#2563EB" height="0.5381191952646761" width="1" x="32" y="0.4618808047353239" />,<rect key="33" fill="#2563EB" height="0.8435629081599613" width="1" x="33" y="0.15643709184003873" />,<rect key="34" fill="#2563EB" height="0.5752532799858817" width="1" x="34" y="0.4247467200141183" />,<rect key="35" fill="#2563EB" height="0.57189253980943" width="1" x="35" y="0.42810746019057" />,<rect key="36" fill="#2563EB" height="0.5548239532019773" width="1" x="36" y="0.4451760467980227" />,<rect key="37" fill="#2563EB" height="0.6102851047586761" width="1" x="37" y="0.38971489524132386" />,<rect key="38" fill="#2563EB" height="0.7437590908621766" width="1" x="38" y="0.2562409091378234" />,<rect key="39" fill="#2563EB" height="0.9095152937562052" width="1" x="39" y="0.09048470624379479" />,<rect key="40" fill="#2563EB" height="0.6001506850754569" width="1" x="40" y="0.3998493149245431" />,<rect key="41" fill="#2563EB" height="0.8196344652398992" width="1" x="41" y="0.18036553476010075" />,<rect key="42" fill="#2563EB" height="0.5670017678172028" width="1" x="42" y="0.4329982321827972" />,<rect key="43" fill="#2563EB" height="0.5184681609677885" width="1" x="43" y="0.48153183903221153" />,<rect key="44" fill="#2563EB" height="0.50014344711737" width="1" x="44" y="0.49985655288263" />,<rect key="45" fill="#2563EB" height="0.5922108128064287" width="1" x="45" y="0.40778918719357127" />,<rect key="46" fill="#2563EB" height="0.6987789915939194" width="1" x="46" y="0.30122100840608057" />,<rect key="47" fill="#2563EB" height="0.88717060094578" width="1" x="47" y="0.11282939905421996" />,<rect key="48" fill="#2563EB" height="0.4109676566765185" width="1" x="48" y="0.5890323433234814" />,<rect key="49" fill="#2563EB" height="0.3653755511445483" width="1" x="49" y="0.6346244488554518" />,<rect key="50" fill="#2563EB" height="0.34905358880407894" width="1" x="50" y="0.6509464111959211" />,<rect key="51" fill="#2563EB" height="0.647911638504476" width="1" x="51" y="0.352088361495524" />,<rect key="52" fill="#2563EB" height="0.4817150120406269" width="1" x="52" y="0.5182849879593732" />,<rect key="53" fill="#2563EB" height="0.4530862800919277" width="1" x="53" y="0.5469137199080722" />,<rect key="54" fill="#2563EB" height="0.3966464815381219" width="1" x="54" y="0.6033535184618781" />,<rect key="55" fill="#2563EB" height="0.6043551944644768" width="1" x="55" y="0.39564480553552317" />,<rect key="56" fill="#2563EB" height="0.6740041331720337" width="1" x="56" y="0.32599586682796633" />,<rect key="57" fill="#2563EB" height="0.616280872458298" width="1" x="57" y="0.383719127541702" />,<rect key="58" fill="#2563EB" height="0.6399134776987917" width="1" x="58" y="0.3600865223012083" />,<rect key="59" fill="#2563EB" height="0.7161333505176722" width="1" x="59" y="0.28386664948232776" />,<rect key="60" fill="#2563EB" height="0.6562384519596776" width="1" x="60" y="0.34376154804032244" />,<rect key="61" fill="#2563EB" height="0.669213413310591" width="1" x="61" y="0.33078658668940897" />,<rect key="62" fill="#2563EB" height="0.7400993784293053" width="1" x="62" y="0.2599006215706947" />,<rect key="63" fill="#2563EB" height="0.9423367869303294" width="1" x="63" y="0.057663213069670594" />,<rect key="64" fill="#2563EB" height="0.6282160631868621" width="1" x="64" y="0.3717839368131379" />,<rect key="65" fill="#2563EB" height="0.5421595651111383" width="1" x="65" y="0.4578404348888617" />,<rect key="66" fill="#2563EB" height="0.6726451458607098" width="1" x="66" y="0.3273548541392902" />,<rect key="67" fill="#2563EB" height="0.6773735174694746" width="1" x="67" y="0.3226264825305254" />,<rect key="68" fill="#2563EB" height="0.6066410987697807" width="1" x="68" y="0.3933589012302193" />,<rect key="69" fill="#2563EB" height="0.6809020322051775" width="1" x="69" y="0.31909796779482247" />,<rect key="70" fill="#2563EB" height="0.8080961874044964" width="1" x="70" y="0.1919038125955036" />,<rect key="71" fill="#2563EB" height="0.9052828723807788" width="1" x="71" y="0.09471712761922124" />,<rect key="72" fill="#2563EB" height="0.6937714997797163" width="1" x="72" y="0.3062285002202837" />,<rect key="73" fill="#2563EB" height="0.7018111641555851" width="1" x="73" y="0.2981888358444149" />,<rect key="74" fill="#2563EB" height="0.5757557558096607" width="1" x="74" y="0.42424424419033935" />,<rect key="75" fill="#2563EB" height="0.5689699915197809" width="1" x="75" y="0.4310300084802191" />,<rect key="76" fill="#2563EB" height="0.6862644886624092" width="1" x="76" y="0.3137355113375908" />,<rect key="77" fill="#2563EB" height="0.7960483594665206" width="1" x="77" y="0.20395164053347936" />,<rect key="78" fill="#2563EB" height="0.9873155606752172" width="1" x="78" y="0.012684439324782804" />,<rect key="79" fill="#2563EB" height="0.7133457119998375" width="1" x="79" y="0.28665428800016246" />,<rect key="80" fill="#2563EB" height="0.5253381905175144" width="1" x="80" y="0.4746618094824856" />,<rect key="81" fill="#2563EB" height="0.4317079847264369" width="1" x="81" y="0.5682920152735631" />,<rect key="82" fill="#2563EB" height="0.4773291281029096" width="1" x="82" y="0.5226708718970904" />,<rect key="83" fill="#2563EB" height="0.46402935944737445" width="1" x="83" y="0.5359706405526256" />,<rect key="84" fill="#2563EB" height="0.48864128630323167" width="1" x="84" y="0.5113587136967683" />,<rect key="85" fill="#2563EB" height="0.7482655756814577" width="1" x="85" y="0.2517344243185423" />,<rect key="86" fill="#2563EB" height="0.8480986304160903" width="1" x="86" y="0.15190136958390965" />,<rect key="87" fill="#2563EB" height="0.6597686144118736" width="1" x="87" y="0.3402313855881264" />,<rect key="88" fill="#2563EB" height="0.7022408406948001" width="1" x="88" y="0.2977591593051999" />,<rect key="89" fill="#2563EB" height="0.5741996970095263" width="1" x="89" y="0.42580030299047367" />,<rect key="90" fill="#2563EB" height="0.7854234965626807" width="1" x="90" y="0.21457650343731927" />,<rect key="91" fill="#2563EB" height="0.7002122534588875" width="1" x="91" y="0.2997877465411125" />,<rect key="92" fill="#2563EB" height="0.719191074999749" width="1" x="92" y="0.280808925000251" />,<rect key="93" fill="#2563EB" height="0.796584514199562" width="1" x="93" y="0.203415485800438" />,<rect key="94" fill="#2563EB" height="0.8060715790760367" width="1" x="94" y="0.19392842092396334" />,<rect key="95" fill="#2563EB" height="0.7041399584487179" width="1" x="95" y="0.2958600415512821" />,<rect key="96" fill="#2563EB" height="0.43120771758392357" width="1" x="96" y="0.5687922824160765" />,<rect key="97" fill="#2563EB" height="0.06671504425961416" width="1" x="97" y="0.9332849557403858" />,<rect key="98" fill="#2563EB" height="0.00300929947625583" width="1" x="98" y="0.9969907005237442" />,<rect key="99" fill="#2563EB" height="0.0005079902999866439" width="1" x="99" y="0.9994920097000134" />
      </svg>
    