<svg xmlns="http://www.w3.org/2000/svg" preserveAspectRatio="none" viewBox="0 0 100 1"><rect key="0" fill="#2563EB" height="0.0630400090884111" width="1" x="0" y="0.9369599909115889" />,<rect key="1" fill="#2563EB" height="0.2878732584470346" width="1" x="1" y="0.7121267415529654" />,<rect key="2" fill="#2563EB" height="0.5730646355004853" width="1" x="2" y="0.42693536449951475" />,<rect key="3" fill="#2563EB" height="0.6094902615800593" width="1" x="3" y="0.39050973841994074" />,<rect key="4" fill="#2563EB" height="0.5433338619528817" width="1" x="4" y="0.4566661380471183" />,<rect key="5" fill="#2563EB" height="0.7916569150450007" width="1" x="5" y="0.2083430849549993" />,<rect key="6" fill="#2563EB" height="0.49967822524193495" width="1" x="6" y="0.500321774758065" />,<rect key="7" fill="#2563EB" height="0.34077811713245176" width="1" x="7" y="0.6592218828675482" />,<rect key="8" fill="#2563EB" height="0.342438131849825" width="1" x="8" y="0.6575618681501749" />,<rect key="9" fill="#2563EB" height="0.33263116131978365" width="1" x="9" y="0.6673688386802163" />,<rect key="10" fill="#2563EB" height="0.5290480696802272" width="1" x="10" y="0.4709519303197728" />,<rect key="11" fill="#2563EB" height="0.4123821858101761" width="1" x="11" y="0.5876178141898238" />,<rect key="12" fill="#2563EB" height="0.64736755924139" width="1" x="12" y="0.35263244075861" />,<rect key="13" fill="#2563EB" height="0.5229973917809309" width="1" x="13" y="0.47700260821906915" />,<rect key="14" fill="#2563EB" height="0.5283801231290416" width="1" x="14" y="0.4716198768709584" />,<rect key="15" fill="#2563EB" height="0.7006605026172498" width="1" x="15" y="0.29933949738275023" />,<rect key="16" fill="#2563EB" height="0.44804641983009774" width="1" x="16" y="0.5519535801699023" />,<rect key="17" fill="#2563EB" height="0.31504354068863505" width="1" x="17" y="0.684956459311365" />,<rect key="18" fill="#2563EB" height="0.2880685406165225" width="1" x="18" y="0.7119314593834776" />,<rect key="19" fill="#2563EB" height="0.42446976108985174" width="1" x="19" y="0.5755302389101482" />,<rect key="20" fill="#2563EB" height="0.49637794843468586" width="1" x="20" y="0.5036220515653141" />,<rect key="21" fill="#2563EB" height="0.4100213618848858" width="1" x="21" y="0.5899786381151142" />,<rect key="22" fill="#2563EB" height="0.7558544104673641" width="1" x="22" y="0.24414558953263588" />,<rect key="23" fill="#2563EB" height="0.48966666224747596" width="1" x="23" y="0.5103333377525241" />,<rect key="24" fill="#2563EB" height="0.6626504239817181" width="1" x="24" y="0.33734957601828186" />,<rect key="25" fill="#2563EB" height="0.5968122561542716" width="1" x="25" y="0.4031877438457284" />,<rect key="26" fill="#2563EB" height="0.3755035599756198" width="1" x="26" y="0.6244964400243802" />,<rect key="27" fill="#2563EB" height="0.3046401550074972" width="1" x="27" y="0.6953598449925028" />,<rect key="28" fill="#2563EB" height="0.2942593019828184" width="1" x="28" y="0.7057406980171816" />,<rect key="29" fill="#2563EB" height="0.44697124448662073" width="1" x="29" y="0.5530287555133793" />,<rect key="30" fill="#2563EB" height="0.43945042237781495" width="1" x="30" y="0.560549577622185" />,<rect key="31" fill="#2563EB" height="0.5060483032320144" width="1" x="31" y="0.49395169676798556" />,<rect key="32" fill="#2563EB" height="0.6884012204469097" width="1" x="32" y="0.31159877955309034" />,<rect key="33" fill="#2563EB" height="0.5844966911040779" width="1" x="33" y="0.41550330889592213" />,<rect key="34" fill="#2563EB" height="0.8155321417627488" width="1" x="34" y="0.1844678582372512" />,<rect key="35" fill="#2563EB" height="0.6057692313692932" width="1" x="35" y="0.39423076863070683" />,<rect key="36" fill="#2563EB" height="0.425544471293379" width="1" x="36" y="0.574455528706621" />,<rect key="37" fill="#2563EB" height="0.36551876238802505" width="1" x="37" y="0.634481237611975" />,<rect key="38" fill="#2563EB" height="0.3676277695337405" width="1" x="38" y="0.6323722304662596" />,<rect key="39" fill="#2563EB" height="0.6940244599431" width="1" x="39" y="0.3059755400569" />,<rect key="40" fill="#2563EB" height="0.8303312853813859" width="1" x="40" y="0.1696687146186141" />,<rect key="41" fill="#2563EB" height="0.8001913885340443" width="1" x="41" y="0.19980861146595574" />,<rect key="42" fill="#2563EB" height="0.7682168772175891" width="1" x="42" y="0.23178312278241087" />,<rect key="43" fill="#2563EB" height="0.7923061327715214" width="1" x="43" y="0.2076938672284786" />,<rect key="44" fill="#2563EB" height="0.9364514618550263" width="1" x="44" y="0.06354853814497374" />,<rect key="45" fill="#2563EB" height="0.7867899494265704" width="1" x="45" y="0.21321005057342957" />,<rect key="46" fill="#2563EB" height="0.6566091080726297" width="1" x="46" y="0.34339089192737027" />,<rect key="47" fill="#2563EB" height="0.5439563968132182" width="1" x="47" y="0.45604360318678183" />,<rect key="48" fill="#2563EB" height="0.6921502619710702" width="1" x="48" y="0.3078497380289298" />,<rect key="49" fill="#2563EB" height="0.7947448947065602" width="1" x="49" y="0.20525510529343982" />,<rect key="50" fill="#2563EB" height="0.7884169032805168" width="1" x="50" y="0.21158309671948317" />,<rect key="51" fill="#2563EB" height="0.7926704194635982" width="1" x="51" y="0.20732958053640183" />,<rect key="52" fill="#2563EB" height="0.645531730025184" width="1" x="52" y="0.35446826997481595" />,<rect key="53" fill="#2563EB" height="0.8078489078771324" width="1" x="53" y="0.19215109212286763" />,<rect key="54" fill="#2563EB" height="0.8244524132456758" width="1" x="54" y="0.17554758675432425" />,<rect key="55" fill="#2563EB" height="0.7291083584914483" width="1" x="55" y="0.2708916415085517" />,<rect key="56" fill="#2563EB" height="0.626676537926683" width="1" x="56" y="0.373323462073317" />,<rect key="57" fill="#2563EB" height="0.5829023019484328" width="1" x="57" y="0.41709769805156716" />,<rect key="58" fill="#2563EB" height="0.6646327367858699" width="1" x="58" y="0.33536726321413013" />,<rect key="59" fill="#2563EB" height="0.7114376628287306" width="1" x="59" y="0.28856233717126945" />,<rect key="60" fill="#2563EB" height="0.6694886680403858" width="1" x="60" y="0.33051133195961424" />,<rect key="61" fill="#2563EB" height="0.8766359835842795" width="1" x="61" y="0.12336401641572048" />,<rect key="62" fill="#2563EB" height="0.6025626373331953" width="1" x="62" y="0.39743736266680474" />,<rect key="63" fill="#2563EB" height="0.9017182860740397" width="1" x="63" y="0.0982817139259603" />,<rect key="64" fill="#2563EB" height="0.7644360343601144" width="1" x="64" y="0.23556396563988558" />,<rect key="65" fill="#2563EB" height="0.6028867644875902" width="1" x="65" y="0.39711323551240985" />,<rect key="66" fill="#2563EB" height="0.5875017353138473" width="1" x="66" y="0.4124982646861527" />,<rect key="67" fill="#2563EB" height="0.530598688940658" width="1" x="67" y="0.469401311059342" />,<rect key="68" fill="#2563EB" height="0.6903295321863862" width="1" x="68" y="0.30967046781361385" />,<rect key="69" fill="#2563EB" height="0.7316375161651593" width="1" x="69" y="0.26836248383484074" />,<rect key="70" fill="#2563EB" height="0.6559833001075464" width="1" x="70" y="0.34401669989245365" />,<rect key="71" fill="#2563EB" height="0.8081554873165321" width="1" x="71" y="0.19184451268346792" />,<rect key="72" fill="#2563EB" height="0.7664368174545354" width="1" x="72" y="0.2335631825454646" />,<rect key="73" fill="#2563EB" height="0.9045307327293655" width="1" x="73" y="0.09546926727063454" />,<rect key="74" fill="#2563EB" height="0.8031141387623465" width="1" x="74" y="0.1968858612376535" />,<rect key="75" fill="#2563EB" height="0.6308899091471041" width="1" x="75" y="0.3691100908528959" />,<rect key="76" fill="#2563EB" height="0.48664139726031935" width="1" x="76" y="0.5133586027396806" />,<rect key="77" fill="#2563EB" height="0.5772399928268936" width="1" x="77" y="0.42276000717310636" />,<rect key="78" fill="#2563EB" height="0.7650376469104377" width="1" x="78" y="0.23496235308956226" />,<rect key="79" fill="#2563EB" height="0.8000142955951213" width="1" x="79" y="0.19998570440487873" />,<rect key="80" fill="#2563EB" height="1" width="1" x="80" y="0" />,<rect key="81" fill="#2563EB" height="0.9756632400433577" width="1" x="81" y="0.024336759956642307" />,<rect key="82" fill="#2563EB" height="0.7709847853157588" width="1" x="82" y="0.22901521468424124" />,<rect key="83" fill="#2563EB" height="0.8036066292415615" width="1" x="83" y="0.19639337075843855" />,<rect key="84" fill="#2563EB" height="0.5344212435683856" width="1" x="84" y="0.4655787564316144" />,<rect key="85" fill="#2563EB" height="0.50274918806488" width="1" x="85" y="0.49725081193512" />,<rect key="86" fill="#2563EB" height="0.19967141106681047" width="1" x="86" y="0.8003285889331895" />,<rect key="87" fill="#2563EB" height="0.06253153429846159" width="1" x="87" y="0.9374684657015384" />,<rect key="88" fill="#2563EB" height="0.063098455256996" width="1" x="88" y="0.936901544743004" />,<rect key="89" fill="#2563EB" height="0.04977485304920497" width="1" x="89" y="0.9502251469507951" />,<rect key="90" fill="#2563EB" height="0.05516116333132236" width="1" x="90" y="0.9448388366686776" />,<rect key="91" fill="#2563EB" height="0.07326798664799113" width="1" x="91" y="0.9267320133520088" />,<rect key="92" fill="#2563EB" height="0.05842010158826073" width="1" x="92" y="0.9415798984117393" />,<rect key="93" fill="#2563EB" height="0.011783996358073714" width="1" x="93" y="0.9882160036419263" />,<rect key="94" fill="#2563EB" height="0.002293466693260255" width="1" x="94" y="0.9977065333067398" />,<rect key="95" fill="#2563EB" height="0.00039865100561727664" width="1" x="95" y="0.9996013489943827" />,<rect key="96" fill="#2563EB" height="0.00010146427496539673" width="1" x="96" y="0.9998985357250346" />,<rect key="97" fill="#2563EB" height="0.000015830205629053264" width="1" x="97" y="0.999984169794371" />,<rect key="98" fill="#2563EB" height="0.0000012917897179853237" width="1" x="98" y="0.999998708210282" />,<rect key="99" fill="#2563EB" height="3.1918245852898637e-7" width="1" x="99" y="0.9999996808175414" /></svg>