<svg xmlns="http://www.w3.org/2000/svg" preserveAspectRatio="none" viewBox="0 0 100 1"><rect key="0" fill="#2563EB" height="0.6979314466458744" width="1" x="0" y="0.30206855335412564" />,<rect key="1" fill="#2563EB" height="0.9415726651093239" width="1" x="1" y="0.058427334890676086" />,<rect key="2" fill="#2563EB" height="0.8209528797648175" width="1" x="2" y="0.17904712023518254" />,<rect key="3" fill="#2563EB" height="0.9226656383520206" width="1" x="3" y="0.07733436164797935" />,<rect key="4" fill="#2563EB" height="0.8741225533413173" width="1" x="4" y="0.12587744665868272" />,<rect key="5" fill="#2563EB" height="0.978337833247826" width="1" x="5" y="0.021662166752174028" />,<rect key="6" fill="#2563EB" height="0.8334341578871958" width="1" x="6" y="0.16656584211280423" />,<rect key="7" fill="#2563EB" height="0.8402918565673312" width="1" x="7" y="0.15970814343266881" />,<rect key="8" fill="#2563EB" height="0.8119932168603925" width="1" x="8" y="0.1880067831396075" />,<rect key="9" fill="#2563EB" height="0.6601304685662239" width="1" x="9" y="0.3398695314337761" />,<rect key="10" fill="#2563EB" height="0.6353958231085423" width="1" x="10" y="0.36460417689145774" />,<rect key="11" fill="#2563EB" height="0.6711593292149174" width="1" x="11" y="0.3288406707850826" />,<rect key="12" fill="#2563EB" height="0.85474053096068" width="1" x="12" y="0.14525946903931997" />,<rect key="13" fill="#2563EB" height="0.8768333815057299" width="1" x="13" y="0.12316661849427013" />,<rect key="14" fill="#2563EB" height="0.9319841852624208" width="1" x="14" y="0.06801581473757923" />,<rect key="15" fill="#2563EB" height="0.7981983099692392" width="1" x="15" y="0.20180169003076076" />,<rect key="16" fill="#2563EB" height="0.8530818142207005" width="1" x="16" y="0.1469181857792995" />,<rect key="17" fill="#2563EB" height="0.7248484834896957" width="1" x="17" y="0.27515151651030434" />,<rect key="18" fill="#2563EB" height="0.5931789081764091" width="1" x="18" y="0.40682109182359094" />,<rect key="19" fill="#2563EB" height="0.7784018593335774" width="1" x="19" y="0.22159814066642258" />,<rect key="20" fill="#2563EB" height="0.8434347600727653" width="1" x="20" y="0.1565652399272347" />,<rect key="21" fill="#2563EB" height="0.8563853440688506" width="1" x="21" y="0.14361465593114942" />,<rect key="22" fill="#2563EB" height="0.8240210723922574" width="1" x="22" y="0.17597892760774259" />,<rect key="23" fill="#2563EB" height="0.665690705212138" width="1" x="23" y="0.334309294787862" />,<rect key="24" fill="#2563EB" height="0.7765122664511059" width="1" x="24" y="0.22348773354889406" />,<rect key="25" fill="#2563EB" height="0.9878112172142419" width="1" x="25" y="0.012188782785758079" />,<rect key="26" fill="#2563EB" height="0.9179215886150903" width="1" x="26" y="0.08207841138490968" />,<rect key="27" fill="#2563EB" height="0.9813478473252705" width="1" x="27" y="0.018652152674729527" />,<rect key="28" fill="#2563EB" height="0.8976904433107672" width="1" x="28" y="0.1023095566892328" />,<rect key="29" fill="#2563EB" height="0.9182987443956733" width="1" x="29" y="0.08170125560432673" />,<rect key="30" fill="#2563EB" height="0.8108475163068602" width="1" x="30" y="0.18915248369313975" />,<rect key="31" fill="#2563EB" height="0.8355574512660547" width="1" x="31" y="0.16444254873394526" />,<rect key="32" fill="#2563EB" height="0.9306280877050324" width="1" x="32" y="0.06937191229496764" />,<rect key="33" fill="#2563EB" height="0.6693692159981982" width="1" x="33" y="0.3306307840018018" />,<rect key="34" fill="#2563EB" height="0.7168140266595611" width="1" x="34" y="0.28318597334043893" />,<rect key="35" fill="#2563EB" height="0.8171309634315461" width="1" x="35" y="0.18286903656845388" />,<rect key="36" fill="#2563EB" height="0.907754377780397" width="1" x="36" y="0.09224562221960297" />,<rect key="37" fill="#2563EB" height="0.8687871717329482" width="1" x="37" y="0.13121282826705183" />,<rect key="38" fill="#2563EB" height="0.8972573546680804" width="1" x="38" y="0.10274264533191957" />,<rect key="39" fill="#2563EB" height="0.9308674679400573" width="1" x="39" y="0.06913253205994274" />,<rect key="40" fill="#2563EB" height="1" width="1" x="40" y="0" />,<rect key="41" fill="#2563EB" height="0.7001441631405506" width="1" x="41" y="0.2998558368594494" />,<rect key="42" fill="#2563EB" height="0.7053221596100352" width="1" x="42" y="0.2946778403899648" />,<rect key="43" fill="#2563EB" height="0.6933005405106323" width="1" x="43" y="0.3066994594893677" />,<rect key="44" fill="#2563EB" height="0.883725262099254" width="1" x="44" y="0.11627473790074605" />,<rect key="45" fill="#2563EB" height="0.861106528947221" width="1" x="45" y="0.13889347105277905" />,<rect key="46" fill="#2563EB" height="0.8525211237410353" width="1" x="46" y="0.14747887625896472" />,<rect key="47" fill="#2563EB" height="0.80946778950025" width="1" x="47" y="0.19053221049975" />,<rect key="48" fill="#2563EB" height="0.7942584529487916" width="1" x="48" y="0.2057415470512084" />,<rect key="49" fill="#2563EB" height="0.8083135426739674" width="1" x="49" y="0.19168645732603262" />,<rect key="50" fill="#2563EB" height="0.8913351613025843" width="1" x="50" y="0.10866483869741572" />,<rect key="51" fill="#2563EB" height="0.9260399381885664" width="1" x="51" y="0.07396006181143355" />,<rect key="52" fill="#2563EB" height="0.805197519820047" width="1" x="52" y="0.19480248017995305" />,<rect key="53" fill="#2563EB" height="0.9900592604436312" width="1" x="53" y="0.00994073955636876" />,<rect key="54" fill="#2563EB" height="0.912295573220643" width="1" x="54" y="0.08770442677935697" />,<rect key="55" fill="#2563EB" height="0.8689428674933708" width="1" x="55" y="0.1310571325066292" />,<rect key="56" fill="#2563EB" height="0.9716048703212116" width="1" x="56" y="0.028395129678788433" />,<rect key="57" fill="#2563EB" height="0.8429842006797998" width="1" x="57" y="0.15701579932020016" />,<rect key="58" fill="#2563EB" height="0.6451005137424566" width="1" x="58" y="0.3548994862575434" />,<rect key="59" fill="#2563EB" height="0.8141603071497059" width="1" x="59" y="0.1858396928502941" />,<rect key="60" fill="#2563EB" height="0.9334872129484398" width="1" x="60" y="0.06651278705156016" />,<rect key="61" fill="#2563EB" height="0.8847854081923275" width="1" x="61" y="0.11521459180767246" />,<rect key="62" fill="#2563EB" height="0.7711359267931359" width="1" x="62" y="0.22886407320686408" />,<rect key="63" fill="#2563EB" height="0.8902986371738271" width="1" x="63" y="0.10970136282617293" />,<rect key="64" fill="#2563EB" height="0.7981247622459741" width="1" x="64" y="0.20187523775402594" />,<rect key="65" fill="#2563EB" height="0.848507668862211" width="1" x="65" y="0.15149233113778904" />,<rect key="66" fill="#2563EB" height="0.7925941059153275" width="1" x="66" y="0.20740589408467247" />,<rect key="67" fill="#2563EB" height="0.8281910010799718" width="1" x="67" y="0.1718089989200282" />,<rect key="68" fill="#2563EB" height="0.7340645853771877" width="1" x="68" y="0.26593541462281234" />,<rect key="69" fill="#2563EB" height="0.9981091993358377" width="1" x="69" y="0.001890800664162251" />,<rect key="70" fill="#2563EB" height="0.7751464912835928" width="1" x="70" y="0.2248535087164072" />,<rect key="71" fill="#2563EB" height="0.9129567099017087" width="1" x="71" y="0.08704329009829126" />,<rect key="72" fill="#2563EB" height="0.6567582855249463" width="1" x="72" y="0.3432417144750537" />,<rect key="73" fill="#2563EB" height="0.7975056135317455" width="1" x="73" y="0.20249438646825446" />,<rect key="74" fill="#2563EB" height="0.6825429587159915" width="1" x="74" y="0.31745704128400853" />,<rect key="75" fill="#2563EB" height="0.9552688801401292" width="1" x="75" y="0.04473111985987077" />,<rect key="76" fill="#2563EB" height="0.7034019450987189" width="1" x="76" y="0.2965980549012811" />,<rect key="77" fill="#2563EB" height="0.9384253568687331" width="1" x="77" y="0.061574643131266926" />,<rect key="78" fill="#2563EB" height="0.7100765893640574" width="1" x="78" y="0.2899234106359426" />,<rect key="79" fill="#2563EB" height="0.8257814129489757" width="1" x="79" y="0.17421858705102433" />,<rect key="80" fill="#2563EB" height="0.7823480917854974" width="1" x="80" y="0.21765190821450264" />,<rect key="81" fill="#2563EB" height="0.745602797342685" width="1" x="81" y="0.254397202657315" />,<rect key="82" fill="#2563EB" height="0.6718483804011581" width="1" x="82" y="0.32815161959884187" />,<rect key="83" fill="#2563EB" height="0.7362493956042456" width="1" x="83" y="0.2637506043957544" />,<rect key="84" fill="#2563EB" height="0.7423850138520633" width="1" x="84" y="0.25761498614793665" />,<rect key="85" fill="#2563EB" height="0.8470902486588666" width="1" x="85" y="0.15290975134113338" />,<rect key="86" fill="#2563EB" height="0.7862329559866021" width="1" x="86" y="0.21376704401339786" />,<rect key="87" fill="#2563EB" height="0.9251072766732581" width="1" x="87" y="0.0748927233267419" />,<rect key="88" fill="#2563EB" height="0.8408100731731301" width="1" x="88" y="0.15918992682686994" />,<rect key="89" fill="#2563EB" height="0.7690259290965723" width="1" x="89" y="0.2309740709034277" />,<rect key="90" fill="#2563EB" height="0.5951999652729478" width="1" x="90" y="0.40480003472705217" />,<rect key="91" fill="#2563EB" height="0.6536942747298915" width="1" x="91" y="0.3463057252701085" />,<rect key="92" fill="#2563EB" height="0.651615450273276" width="1" x="92" y="0.34838454972672395" />,<rect key="93" fill="#2563EB" height="0.891049108103904" width="1" x="93" y="0.10895089189609597" />,<rect key="94" fill="#2563EB" height="0.7709201472630874" width="1" x="94" y="0.22907985273691256" />,<rect key="95" fill="#2563EB" height="0.7605378852596747" width="1" x="95" y="0.2394621147403253" />,<rect key="96" fill="#2563EB" height="0.7488971350243121" width="1" x="96" y="0.2511028649756879" />,<rect key="97" fill="#2563EB" height="0.488129432578303" width="1" x="97" y="0.511870567421697" />,<rect key="98" fill="#2563EB" height="0.007928867929402443" width="1" x="98" y="0.9920711320705976" />,<rect key="99" fill="#2563EB" height="0.00020636327807157305" width="1" x="99" y="0.9997936367219284" /></svg>