<svg xmlns="http://www.w3.org/2000/svg" preserveAspectRatio="none" viewBox="0 0 100 1"><rect key="0" fill="#2563EB" height="0.33934930803864727" width="1" x="0" y="0.6606506919613527" />,<rect key="1" fill="#2563EB" height="0.39052820275305394" width="1" x="1" y="0.6094717972469461" />,<rect key="2" fill="#2563EB" height="0.4209869922924686" width="1" x="2" y="0.5790130077075314" />,<rect key="3" fill="#2563EB" height="0.40048558938582673" width="1" x="3" y="0.5995144106141732" />,<rect key="4" fill="#2563EB" height="0.4707517826885179" width="1" x="4" y="0.5292482173114821" />,<rect key="5" fill="#2563EB" height="0.3776859733133945" width="1" x="5" y="0.6223140266866055" />,<rect key="6" fill="#2563EB" height="0.43291024356963326" width="1" x="6" y="0.5670897564303667" />,<rect key="7" fill="#2563EB" height="0.41401006478719404" width="1" x="7" y="0.585989935212806" />,<rect key="8" fill="#2563EB" height="0.365007441811331" width="1" x="8" y="0.6349925581886691" />,<rect key="9" fill="#2563EB" height="0.42501745132503366" width="1" x="9" y="0.5749825486749663" />,<rect key="10" fill="#2563EB" height="0.437278942888623" width="1" x="10" y="0.562721057111377" />,<rect key="11" fill="#2563EB" height="0.3924530206088509" width="1" x="11" y="0.6075469793911491" />,<rect key="12" fill="#2563EB" height="0.2652304871415368" width="1" x="12" y="0.7347695128584633" />,<rect key="13" fill="#2563EB" height="0.7688732556627462" width="1" x="13" y="0.23112674433725378" />,<rect key="14" fill="#2563EB" height="0.6257911155388791" width="1" x="14" y="0.3742088844611209" />,<rect key="15" fill="#2563EB" height="0.6652748069909442" width="1" x="15" y="0.3347251930090558" />,<rect key="16" fill="#2563EB" height="0.7351557939626931" width="1" x="16" y="0.26484420603730685" />,<rect key="17" fill="#2563EB" height="0.6426756116578168" width="1" x="17" y="0.35732438834218316" />,<rect key="18" fill="#2563EB" height="0.6771079312491253" width="1" x="18" y="0.32289206875087473" />,<rect key="19" fill="#2563EB" height="0.6464433314469129" width="1" x="19" y="0.3535566685530871" />,<rect key="20" fill="#2563EB" height="0.6471597179157873" width="1" x="20" y="0.3528402820842127" />,<rect key="21" fill="#2563EB" height="0.7405180655208136" width="1" x="21" y="0.25948193447918644" />,<rect key="22" fill="#2563EB" height="0.684345562653148" width="1" x="22" y="0.31565443734685195" />,<rect key="23" fill="#2563EB" height="0.6964715127045733" width="1" x="23" y="0.3035284872954267" />,<rect key="24" fill="#2563EB" height="0.7134474909161199" width="1" x="24" y="0.2865525090838801" />,<rect key="25" fill="#2563EB" height="0.612963409054055" width="1" x="25" y="0.387036590945945" />,<rect key="26" fill="#2563EB" height="0.6887946178589657" width="1" x="26" y="0.3112053821410343" />,<rect key="27" fill="#2563EB" height="0.7145358841934921" width="1" x="27" y="0.2854641158065079" />,<rect key="28" fill="#2563EB" height="0.690846980386069" width="1" x="28" y="0.30915301961393105" />,<rect key="29" fill="#2563EB" height="0.7521671289935996" width="1" x="29" y="0.2478328710064004" />,<rect key="30" fill="#2563EB" height="0.6557900398127938" width="1" x="30" y="0.3442099601872062" />,<rect key="31" fill="#2563EB" height="0.7604609089700861" width="1" x="31" y="0.2395390910299139" />,<rect key="32" fill="#2563EB" height="0.9135564761687072" width="1" x="32" y="0.08644352383129283" />,<rect key="33" fill="#2563EB" height="0.6972401444764632" width="1" x="33" y="0.3027598555235368" />,<rect key="34" fill="#2563EB" height="0.8191553115889918" width="1" x="34" y="0.1808446884110082" />,<rect key="35" fill="#2563EB" height="0.9147124011448399" width="1" x="35" y="0.08528759885516013" />,<rect key="36" fill="#2563EB" height="0.6149264503230469" width="1" x="36" y="0.38507354967695306" />,<rect key="37" fill="#2563EB" height="0.5951842934706792" width="1" x="37" y="0.40481570652932075" />,<rect key="38" fill="#2563EB" height="0.7468978806351204" width="1" x="38" y="0.2531021193648796" />,<rect key="39" fill="#2563EB" height="0.7114087705342237" width="1" x="39" y="0.2885912294657763" />,<rect key="40" fill="#2563EB" height="0.7412352429532755" width="1" x="40" y="0.2587647570467245" />,<rect key="41" fill="#2563EB" height="0.747503378596359" width="1" x="41" y="0.25249662140364104" />,<rect key="42" fill="#2563EB" height="0.8264234639845732" width="1" x="42" y="0.17357653601542677" />,<rect key="43" fill="#2563EB" height="0.782041751024836" width="1" x="43" y="0.21795824897516403" />,<rect key="44" fill="#2563EB" height="0.7209133473168016" width="1" x="44" y="0.27908665268319843" />,<rect key="45" fill="#2563EB" height="0.6851761245912076" width="1" x="45" y="0.3148238754087924" />,<rect key="46" fill="#2563EB" height="0.7836821208218683" width="1" x="46" y="0.21631787917813172" />,<rect key="47" fill="#2563EB" height="0.7845009486229227" width="1" x="47" y="0.21549905137707726" />,<rect key="48" fill="#2563EB" height="0.6503418882673306" width="1" x="48" y="0.34965811173266936" />,<rect key="49" fill="#2563EB" height="0.8791581405627966" width="1" x="49" y="0.12084185943720338" />,<rect key="50" fill="#2563EB" height="0.9406052616414713" width="1" x="50" y="0.05939473835852871" />,<rect key="51" fill="#2563EB" height="0.7174828572451274" width="1" x="51" y="0.2825171427548726" />,<rect key="52" fill="#2563EB" height="0.6121985715063306" width="1" x="52" y="0.3878014284936694" />,<rect key="53" fill="#2563EB" height="0.7560276341065965" width="1" x="53" y="0.24397236589340354" />,<rect key="54" fill="#2563EB" height="0.7626405180176398" width="1" x="54" y="0.23735948198236023" />,<rect key="55" fill="#2563EB" height="0.7172521149680864" width="1" x="55" y="0.2827478850319136" />,<rect key="56" fill="#2563EB" height="0.7463801813023787" width="1" x="56" y="0.2536198186976213" />,<rect key="57" fill="#2563EB" height="0.8364253587420736" width="1" x="57" y="0.16357464125792642" />,<rect key="58" fill="#2563EB" height="0.6876288855615886" width="1" x="58" y="0.31237111443841137" />,<rect key="59" fill="#2563EB" height="0.7281094187497577" width="1" x="59" y="0.27189058125024235" />,<rect key="60" fill="#2563EB" height="0.9545549148392498" width="1" x="60" y="0.04544508516075019" />,<rect key="61" fill="#2563EB" height="0.8767697568420063" width="1" x="61" y="0.12323024315799369" />,<rect key="62" fill="#2563EB" height="0.9363461378013793" width="1" x="62" y="0.06365386219862068" />,<rect key="63" fill="#2563EB" height="0.9116505779649043" width="1" x="63" y="0.08834942203509566" />,<rect key="64" fill="#2563EB" height="0.8092606303659845" width="1" x="64" y="0.1907393696340155" />,<rect key="65" fill="#2563EB" height="0.8337542287046308" width="1" x="65" y="0.16624577129536922" />,<rect key="66" fill="#2563EB" height="0.8018661438896271" width="1" x="66" y="0.19813385611037293" />,<rect key="67" fill="#2563EB" height="0.862853833770816" width="1" x="67" y="0.13714616622918396" />,<rect key="68" fill="#2563EB" height="0.9100508376011796" width="1" x="68" y="0.08994916239882045" />,<rect key="69" fill="#2563EB" height="0.8549453097538501" width="1" x="69" y="0.14505469024614992" />,<rect key="70" fill="#2563EB" height="0.7590556052816413" width="1" x="70" y="0.2409443947183587" />,<rect key="71" fill="#2563EB" height="0.7713635532645301" width="1" x="71" y="0.2286364467354699" />,<rect key="72" fill="#2563EB" height="0.9193146536021629" width="1" x="72" y="0.08068534639783709" />,<rect key="73" fill="#2563EB" height="0.7817960713963678" width="1" x="73" y="0.21820392860363225" />,<rect key="74" fill="#2563EB" height="0.8469475045573536" width="1" x="74" y="0.15305249544264643" />,<rect key="75" fill="#2563EB" height="0.9780925195198981" width="1" x="75" y="0.021907480480101937" />,<rect key="76" fill="#2563EB" height="0.8911016472300191" width="1" x="76" y="0.10889835276998094" />,<rect key="77" fill="#2563EB" height="0.6447580062570957" width="1" x="77" y="0.3552419937429043" />,<rect key="78" fill="#2563EB" height="0.7145694823469428" width="1" x="78" y="0.28543051765305716" />,<rect key="79" fill="#2563EB" height="0.9453032997494127" width="1" x="79" y="0.05469670025058726" />,<rect key="80" fill="#2563EB" height="0.7682119728527895" width="1" x="80" y="0.23178802714721047" />,<rect key="81" fill="#2563EB" height="0.7985850713383741" width="1" x="81" y="0.2014149286616259" />,<rect key="82" fill="#2563EB" height="0.7803776322435971" width="1" x="82" y="0.21962236775640287" />,<rect key="83" fill="#2563EB" height="0.8123214030295285" width="1" x="83" y="0.1876785969704715" />,<rect key="84" fill="#2563EB" height="0.6962397615015344" width="1" x="84" y="0.30376023849846556" />,<rect key="85" fill="#2563EB" height="0.8742120348071204" width="1" x="85" y="0.1257879651928796" />,<rect key="86" fill="#2563EB" height="0.9394691302568369" width="1" x="86" y="0.06053086974316313" />,<rect key="87" fill="#2563EB" height="1" width="1" x="87" y="0" />,<rect key="88" fill="#2563EB" height="0.8552260176852042" width="1" x="88" y="0.14477398231479577" />,<rect key="89" fill="#2563EB" height="0.9255806015791481" width="1" x="89" y="0.07441939842085188" />,<rect key="90" fill="#2563EB" height="0.8632790933687691" width="1" x="90" y="0.13672090663123093" />,<rect key="91" fill="#2563EB" height="0.7516057065561832" width="1" x="91" y="0.2483942934438168" />,<rect key="92" fill="#2563EB" height="0.8989049897372724" width="1" x="92" y="0.1010950102627276" />,<rect key="93" fill="#2563EB" height="0.8181103071749981" width="1" x="93" y="0.1818896928250019" />,<rect key="94" fill="#2563EB" height="0.7970093372398809" width="1" x="94" y="0.20299066276011912" />,<rect key="95" fill="#2563EB" height="0.9712100304137966" width="1" x="95" y="0.02878996958620339" />,<rect key="96" fill="#2563EB" height="0.7743041760070845" width="1" x="96" y="0.22569582399291555" />,<rect key="97" fill="#2563EB" height="0.7897882734303934" width="1" x="97" y="0.21021172656960663" />,<rect key="98" fill="#2563EB" height="0.11203336256023626" width="1" x="98" y="0.8879666374397638" />,<rect key="99" fill="#2563EB" height="0.0012447814398501606" width="1" x="99" y="0.9987552185601498" /></svg>