
      <svg xmlns="http://www.w3.org/2000/svg" preserveAspectRatio="none" viewBox="0 0 100 1">
        <rect key="0" fill="#2563EB" height="0.46774102386103616" width="1" x="0" y="0.5322589761389638" />,<rect key="1" fill="#2563EB" height="0.5640920543680236" width="1" x="1" y="0.43590794563197643" />,<rect key="2" fill="#2563EB" height="0.6727755405785231" width="1" x="2" y="0.32722445942147693" />,<rect key="3" fill="#2563EB" height="0.48471004689979486" width="1" x="3" y="0.5152899531002051" />,<rect key="4" fill="#2563EB" height="0.5090704978782297" width="1" x="4" y="0.49092950212177033" />,<rect key="5" fill="#2563EB" height="0.627604320787309" width="1" x="5" y="0.372395679212691" />,<rect key="6" fill="#2563EB" height="0.5202330587277985" width="1" x="6" y="0.47976694127220154" />,<rect key="7" fill="#2563EB" height="0.6303044314365227" width="1" x="7" y="0.3696955685634773" />,<rect key="8" fill="#2563EB" height="0.533950622897434" width="1" x="8" y="0.466049377102566" />,<rect key="9" fill="#2563EB" height="0.5161963922905477" width="1" x="9" y="0.4838036077094523" />,<rect key="10" fill="#2563EB" height="0.7337262663742323" width="1" x="10" y="0.2662737336257677" />,<rect key="11" fill="#2563EB" height="0.6789139016513552" width="1" x="11" y="0.32108609834864477" />,<rect key="12" fill="#2563EB" height="0.801408466705066" width="1" x="12" y="0.19859153329493395" />,<rect key="13" fill="#2563EB" height="0.6068320070235731" width="1" x="13" y="0.3931679929764269" />,<rect key="14" fill="#2563EB" height="0.6404659657265973" width="1" x="14" y="0.3595340342734027" />,<rect key="15" fill="#2563EB" height="0.7003986698067939" width="1" x="15" y="0.2996013301932061" />,<rect key="16" fill="#2563EB" height="0.6364396117779377" width="1" x="16" y="0.36356038822206227" />,<rect key="17" fill="#2563EB" height="0.7381819252691245" width="1" x="17" y="0.2618180747308755" />,<rect key="18" fill="#2563EB" height="0.6550891213090035" width="1" x="18" y="0.34491087869099646" />,<rect key="19" fill="#2563EB" height="0.6805796645715159" width="1" x="19" y="0.31942033542848414" />,<rect key="20" fill="#2563EB" height="0.7374112185072484" width="1" x="20" y="0.26258878149275156" />,<rect key="21" fill="#2563EB" height="0.629444600182439" width="1" x="21" y="0.370555399817561" />,<rect key="22" fill="#2563EB" height="0.6759230135365037" width="1" x="22" y="0.32407698646349625" />,<rect key="23" fill="#2563EB" height="0.588095039515797" width="1" x="23" y="0.411904960484203" />,<rect key="24" fill="#2563EB" height="0.6129378341209902" width="1" x="24" y="0.38706216587900977" />,<rect key="25" fill="#2563EB" height="0.8194465710318183" width="1" x="25" y="0.18055342896818172" />,<rect key="26" fill="#2563EB" height="0.6471602806802733" width="1" x="26" y="0.3528397193197267" />,<rect key="27" fill="#2563EB" height="0.7176373489210686" width="1" x="27" y="0.28236265107893144" />,<rect key="28" fill="#2563EB" height="0.7029425660235585" width="1" x="28" y="0.29705743397644147" />,<rect key="29" fill="#2563EB" height="0.6659308146632837" width="1" x="29" y="0.33406918533671626" />,<rect key="30" fill="#2563EB" height="0.8344506505086161" width="1" x="30" y="0.1655493494913839" />,<rect key="31" fill="#2563EB" height="0.6963752307283442" width="1" x="31" y="0.3036247692716558" />,<rect key="32" fill="#2563EB" height="0.8928327542748574" width="1" x="32" y="0.10716724572514258" />,<rect key="33" fill="#2563EB" height="0.6255599071691288" width="1" x="33" y="0.3744400928308712" />,<rect key="34" fill="#2563EB" height="0.6461511753137723" width="1" x="34" y="0.3538488246862277" />,<rect key="35" fill="#2563EB" height="0.7556464500827011" width="1" x="35" y="0.24435354991729885" />,<rect key="36" fill="#2563EB" height="0.6600414854809152" width="1" x="36" y="0.33995851451908476" />,<rect key="37" fill="#2563EB" height="0.7753942853346315" width="1" x="37" y="0.2246057146653685" />,<rect key="38" fill="#2563EB" height="0.9904105162873448" width="1" x="38" y="0.009589483712655222" />,<rect key="39" fill="#2563EB" height="0.8751702209130464" width="1" x="39" y="0.12482977908695359" />,<rect key="40" fill="#2563EB" height="0.850241759681714" width="1" x="40" y="0.149758240318286" />,<rect key="41" fill="#2563EB" height="0.6786773625801661" width="1" x="41" y="0.3213226374198339" />,<rect key="42" fill="#2563EB" height="1" width="1" x="42" y="0" />,<rect key="43" fill="#2563EB" height="0.6089836732647206" width="1" x="43" y="0.3910163267352794" />,<rect key="44" fill="#2563EB" height="0.6476913941242894" width="1" x="44" y="0.35230860587571056" />,<rect key="45" fill="#2563EB" height="0.7976450725364368" width="1" x="45" y="0.2023549274635632" />,<rect key="46" fill="#2563EB" height="0.6144599109771878" width="1" x="46" y="0.3855400890228122" />,<rect key="47" fill="#2563EB" height="0.8134874238746529" width="1" x="47" y="0.1865125761253471" />,<rect key="48" fill="#2563EB" height="0.9539451458042542" width="1" x="48" y="0.04605485419574584" />,<rect key="49" fill="#2563EB" height="0.8897457294896749" width="1" x="49" y="0.1102542705103251" />,<rect key="50" fill="#2563EB" height="0.7907807597673263" width="1" x="50" y="0.2092192402326737" />,<rect key="51" fill="#2563EB" height="0.7160054102059262" width="1" x="51" y="0.28399458979407377" />,<rect key="52" fill="#2563EB" height="0.9423078635804695" width="1" x="52" y="0.057692136419530526" />,<rect key="53" fill="#2563EB" height="0.7319927537920737" width="1" x="53" y="0.26800724620792626" />,<rect key="54" fill="#2563EB" height="0.6385296363423891" width="1" x="54" y="0.36147036365761087" />,<rect key="55" fill="#2563EB" height="0.8140515970529217" width="1" x="55" y="0.18594840294707826" />,<rect key="56" fill="#2563EB" height="0.6702018508128472" width="1" x="56" y="0.3297981491871528" />,<rect key="57" fill="#2563EB" height="0.8455095221313935" width="1" x="57" y="0.15449047786860648" />,<rect key="58" fill="#2563EB" height="0.6200316750583075" width="1" x="58" y="0.3799683249416925" />,<rect key="59" fill="#2563EB" height="0.7233370718547902" width="1" x="59" y="0.27666292814520976" />,<rect key="60" fill="#2563EB" height="0.8281696356550872" width="1" x="60" y="0.17183036434491283" />,<rect key="61" fill="#2563EB" height="0.7170346965509243" width="1" x="61" y="0.28296530344907567" />,<rect key="62" fill="#2563EB" height="0.8556650099030284" width="1" x="62" y="0.1443349900969716" />,<rect key="63" fill="#2563EB" height="0.7276956011024251" width="1" x="63" y="0.27230439889757485" />,<rect key="64" fill="#2563EB" height="0.7461073857174829" width="1" x="64" y="0.2538926142825171" />,<rect key="65" fill="#2563EB" height="0.8375803972128912" width="1" x="65" y="0.16241960278710876" />,<rect key="66" fill="#2563EB" height="0.6570908938812544" width="1" x="66" y="0.3429091061187456" />,<rect key="67" fill="#2563EB" height="0.808745248986321" width="1" x="67" y="0.19125475101367895" />,<rect key="68" fill="#2563EB" height="0.5280810359770112" width="1" x="68" y="0.47191896402298883" />,<rect key="69" fill="#2563EB" height="0.6902637413842901" width="1" x="69" y="0.30973625861570986" />,<rect key="70" fill="#2563EB" height="0.4943540788375529" width="1" x="70" y="0.5056459211624471" />,<rect key="71" fill="#2563EB" height="0.43252708776335086" width="1" x="71" y="0.5674729122366491" />,<rect key="72" fill="#2563EB" height="0.39554344539978303" width="1" x="72" y="0.604456554600217" />,<rect key="73" fill="#2563EB" height="0.3184105941999017" width="1" x="73" y="0.6815894058000983" />,<rect key="74" fill="#2563EB" height="0.403822587223026" width="1" x="74" y="0.596177412776974" />,<rect key="75" fill="#2563EB" height="0.3450926730744158" width="1" x="75" y="0.6549073269255842" />,<rect key="76" fill="#2563EB" height="0.3827903800964888" width="1" x="76" y="0.6172096199035112" />,<rect key="77" fill="#2563EB" height="0.34094134941567517" width="1" x="77" y="0.6590586505843248" />,<rect key="78" fill="#2563EB" height="0.3725260939799976" width="1" x="78" y="0.6274739060200024" />,<rect key="79" fill="#2563EB" height="0.37424718199028023" width="1" x="79" y="0.6257528180097198" />,<rect key="80" fill="#2563EB" height="0.37761040218425557" width="1" x="80" y="0.6223895978157444" />,<rect key="81" fill="#2563EB" height="0.42227452762595874" width="1" x="81" y="0.5777254723740413" />,<rect key="82" fill="#2563EB" height="0.39411410598732705" width="1" x="82" y="0.605885894012673" />,<rect key="83" fill="#2563EB" height="0.32278480460959047" width="1" x="83" y="0.6772151953904095" />,<rect key="84" fill="#2563EB" height="0.4011499078292775" width="1" x="84" y="0.5988500921707225" />,<rect key="85" fill="#2563EB" height="0.3444331148643975" width="1" x="85" y="0.6555668851356025" />,<rect key="86" fill="#2563EB" height="0.3679637815266852" width="1" x="86" y="0.6320362184733148" />,<rect key="87" fill="#2563EB" height="0.3668067060913817" width="1" x="87" y="0.6331932939086182" />,<rect key="88" fill="#2563EB" height="0.3327500904508585" width="1" x="88" y="0.6672499095491415" />,<rect key="89" fill="#2563EB" height="0.53852965279813" width="1" x="89" y="0.46147034720186997" />,<rect key="90" fill="#2563EB" height="0.6368263896269538" width="1" x="90" y="0.3631736103730462" />,<rect key="91" fill="#2563EB" height="0.04081861268521623" width="1" x="91" y="0.9591813873147838" />,<rect key="92" fill="#2563EB" height="0.0010077289330395346" width="1" x="92" y="0.9989922710669604" />,<rect key="93" fill="#2563EB" height="0.000020057584414628264" width="1" x="93" y="0.9999799424155854" />,<rect key="94" fill="#2563EB" height="0.00000249193662895774" width="1" x="94" y="0.9999975080633711" />,<rect key="95" fill="#2563EB" height="2.805296528964125e-7" width="1" x="95" y="0.999999719470347" />,<rect key="96" fill="#2563EB" height="9.811479077132851e-8" width="1" x="96" y="0.9999999018852093" />,<rect key="97" fill="#2563EB" height="0" width="1" x="97" y="1" />,<rect key="98" fill="#2563EB" height="0" width="1" x="98" y="1" />,<rect key="99" fill="#2563EB" height="0" width="1" x="99" y="1" />
      </svg>
    