<svg xmlns="http://www.w3.org/2000/svg" preserveAspectRatio="none" viewBox="0 0 100 1"><rect key="0" fill="#2563EB" height="0.48576440398407017" width="1" x="0" y="0.5142355960159298" />,<rect key="1" fill="#2563EB" height="0.47140426438573285" width="1" x="1" y="0.5285957356142672" />,<rect key="2" fill="#2563EB" height="0.4830834896826319" width="1" x="2" y="0.5169165103173681" />,<rect key="3" fill="#2563EB" height="0.5508442672247946" width="1" x="3" y="0.4491557327752054" />,<rect key="4" fill="#2563EB" height="0.5684601667854448" width="1" x="4" y="0.43153983321455525" />,<rect key="5" fill="#2563EB" height="0.5739337731350423" width="1" x="5" y="0.42606622686495765" />,<rect key="6" fill="#2563EB" height="0.5652063081884969" width="1" x="6" y="0.43479369181150307" />,<rect key="7" fill="#2563EB" height="0.6579252368909129" width="1" x="7" y="0.34207476310908713" />,<rect key="8" fill="#2563EB" height="0.5607710918609278" width="1" x="8" y="0.4392289081390722" />,<rect key="9" fill="#2563EB" height="0.5559424710933418" width="1" x="9" y="0.44405752890665817" />,<rect key="10" fill="#2563EB" height="0.5520746326240983" width="1" x="10" y="0.4479253673759017" />,<rect key="11" fill="#2563EB" height="0.5967411603267343" width="1" x="11" y="0.4032588396732657" />,<rect key="12" fill="#2563EB" height="0.6596082882148175" width="1" x="12" y="0.34039171178518246" />,<rect key="13" fill="#2563EB" height="0.5884527370574005" width="1" x="13" y="0.41154726294259947" />,<rect key="14" fill="#2563EB" height="0.5382760027071052" width="1" x="14" y="0.4617239972928948" />,<rect key="15" fill="#2563EB" height="0.5303568336053155" width="1" x="15" y="0.4696431663946845" />,<rect key="16" fill="#2563EB" height="0.5183815222633229" width="1" x="16" y="0.4816184777366771" />,<rect key="17" fill="#2563EB" height="0.49810192362662886" width="1" x="17" y="0.5018980763733711" />,<rect key="18" fill="#2563EB" height="0.5369401165594644" width="1" x="18" y="0.4630598834405356" />,<rect key="19" fill="#2563EB" height="0.5215265226857234" width="1" x="19" y="0.4784734773142766" />,<rect key="20" fill="#2563EB" height="0.5037480554731769" width="1" x="20" y="0.4962519445268231" />,<rect key="21" fill="#2563EB" height="0.4656657665481408" width="1" x="21" y="0.5343342334518593" />,<rect key="22" fill="#2563EB" height="0.6210495949805309" width="1" x="22" y="0.3789504050194691" />,<rect key="23" fill="#2563EB" height="0.5110415470366834" width="1" x="23" y="0.48895845296331664" />,<rect key="24" fill="#2563EB" height="0.5031118907273323" width="1" x="24" y="0.4968881092726677" />,<rect key="25" fill="#2563EB" height="0.5220650484809296" width="1" x="25" y="0.4779349515190704" />,<rect key="26" fill="#2563EB" height="0.496718796820521" width="1" x="26" y="0.503281203179479" />,<rect key="27" fill="#2563EB" height="0.4749002940289086" width="1" x="27" y="0.5250997059710913" />,<rect key="28" fill="#2563EB" height="0.5028672613033197" width="1" x="28" y="0.4971327386966803" />,<rect key="29" fill="#2563EB" height="0.6397760419497738" width="1" x="29" y="0.3602239580502262" />,<rect key="30" fill="#2563EB" height="0.5619418919805758" width="1" x="30" y="0.43805810801942424" />,<rect key="31" fill="#2563EB" height="0.5367404050917507" width="1" x="31" y="0.4632595949082493" />,<rect key="32" fill="#2563EB" height="0.4961151744420645" width="1" x="32" y="0.5038848255579356" />,<rect key="33" fill="#2563EB" height="0.45735745468924377" width="1" x="33" y="0.5426425453107562" />,<rect key="34" fill="#2563EB" height="0.5008632675642302" width="1" x="34" y="0.49913673243576984" />,<rect key="35" fill="#2563EB" height="0.5379708284798963" width="1" x="35" y="0.4620291715201037" />,<rect key="36" fill="#2563EB" height="0.5937509107120225" width="1" x="36" y="0.40624908928797754" />,<rect key="37" fill="#2563EB" height="0.6662692525432338" width="1" x="37" y="0.33373074745676623" />,<rect key="38" fill="#2563EB" height="0.6221331753355004" width="1" x="38" y="0.3778668246644996" />,<rect key="39" fill="#2563EB" height="0.5875719753258009" width="1" x="39" y="0.41242802467419915" />,<rect key="40" fill="#2563EB" height="0.5419483015500132" width="1" x="40" y="0.45805169844998683" />,<rect key="41" fill="#2563EB" height="0.5910053969897316" width="1" x="41" y="0.40899460301026835" />,<rect key="42" fill="#2563EB" height="0.625083354165036" width="1" x="42" y="0.374916645834964" />,<rect key="43" fill="#2563EB" height="0.6153879543525451" width="1" x="43" y="0.3846120456474549" />,<rect key="44" fill="#2563EB" height="0.49566763821221177" width="1" x="44" y="0.5043323617877882" />,<rect key="45" fill="#2563EB" height="0.5418810192752486" width="1" x="45" y="0.45811898072475143" />,<rect key="46" fill="#2563EB" height="0.5507665062928024" width="1" x="46" y="0.44923349370719756" />,<rect key="47" fill="#2563EB" height="0.4917035003106741" width="1" x="47" y="0.5082964996893259" />,<rect key="48" fill="#2563EB" height="0.6035783672956992" width="1" x="48" y="0.39642163270430075" />,<rect key="49" fill="#2563EB" height="0.536137344302085" width="1" x="49" y="0.46386265569791496" />,<rect key="50" fill="#2563EB" height="0.5503993070721078" width="1" x="50" y="0.4496006929278922" />,<rect key="51" fill="#2563EB" height="0.49797620585909524" width="1" x="51" y="0.5020237941409047" />,<rect key="52" fill="#2563EB" height="0.7603508142074634" width="1" x="52" y="0.23964918579253658" />,<rect key="53" fill="#2563EB" height="0.49401889043893543" width="1" x="53" y="0.5059811095610646" />,<rect key="54" fill="#2563EB" height="0.5145563601677351" width="1" x="54" y="0.4854436398322649" />,<rect key="55" fill="#2563EB" height="0.500740198832109" width="1" x="55" y="0.49925980116789104" />,<rect key="56" fill="#2563EB" height="0.5309644294435326" width="1" x="56" y="0.4690355705564674" />,<rect key="57" fill="#2563EB" height="0.528563989776654" width="1" x="57" y="0.471436010223346" />,<rect key="58" fill="#2563EB" height="0.5327429665847654" width="1" x="58" y="0.4672570334152346" />,<rect key="59" fill="#2563EB" height="0.5687491056319611" width="1" x="59" y="0.4312508943680389" />,<rect key="60" fill="#2563EB" height="0.5392088763520579" width="1" x="60" y="0.46079112364794206" />,<rect key="61" fill="#2563EB" height="0.49070892175995195" width="1" x="61" y="0.509291078240048" />,<rect key="62" fill="#2563EB" height="0.48422523456292793" width="1" x="62" y="0.5157747654370721" />,<rect key="63" fill="#2563EB" height="0.4960159686849279" width="1" x="63" y="0.5039840313150721" />,<rect key="64" fill="#2563EB" height="0.5839755600502299" width="1" x="64" y="0.4160244399497701" />,<rect key="65" fill="#2563EB" height="0.5526213541095725" width="1" x="65" y="0.44737864589042753" />,<rect key="66" fill="#2563EB" height="0.5573214751148935" width="1" x="66" y="0.4426785248851065" />,<rect key="67" fill="#2563EB" height="0.6626658898282957" width="1" x="67" y="0.33733411017170434" />,<rect key="68" fill="#2563EB" height="0.4975184705656184" width="1" x="68" y="0.5024815294343816" />,<rect key="69" fill="#2563EB" height="0.8522138309799102" width="1" x="69" y="0.14778616902008979" />,<rect key="70" fill="#2563EB" height="0.4951001535937918" width="1" x="70" y="0.5048998464062082" />,<rect key="71" fill="#2563EB" height="0.5911360812656726" width="1" x="71" y="0.40886391873432737" />,<rect key="72" fill="#2563EB" height="0.6227838278711568" width="1" x="72" y="0.3772161721288432" />,<rect key="73" fill="#2563EB" height="0.5620417044193303" width="1" x="73" y="0.4379582955806697" />,<rect key="74" fill="#2563EB" height="0.4972867050197274" width="1" x="74" y="0.5027132949802726" />,<rect key="75" fill="#2563EB" height="0.562153999043384" width="1" x="75" y="0.43784600095661597" />,<rect key="76" fill="#2563EB" height="0.5084231516321603" width="1" x="76" y="0.49157684836783966" />,<rect key="77" fill="#2563EB" height="0.5192253688408698" width="1" x="77" y="0.4807746311591302" />,<rect key="78" fill="#2563EB" height="0.8877780894695976" width="1" x="78" y="0.11222191053040242" />,<rect key="79" fill="#2563EB" height="0.6586439431404755" width="1" x="79" y="0.3413560568595245" />,<rect key="80" fill="#2563EB" height="0.49734284555999697" width="1" x="80" y="0.502657154440003" />,<rect key="81" fill="#2563EB" height="0.5358647585212603" width="1" x="81" y="0.46413524147873975" />,<rect key="82" fill="#2563EB" height="0.5243456900431472" width="1" x="82" y="0.47565430995685276" />,<rect key="83" fill="#2563EB" height="1" width="1" x="83" y="0" />,<rect key="84" fill="#2563EB" height="0.5424927580189479" width="1" x="84" y="0.4575072419810521" />,<rect key="85" fill="#2563EB" height="0.49348120742736407" width="1" x="85" y="0.506518792572636" />,<rect key="86" fill="#2563EB" height="0.505334187964053" width="1" x="86" y="0.49466581203594695" />,<rect key="87" fill="#2563EB" height="0.6455710142525146" width="1" x="87" y="0.3544289857474854" />,<rect key="88" fill="#2563EB" height="0.60297238392372" width="1" x="88" y="0.39702761607628" />,<rect key="89" fill="#2563EB" height="0.5301409804320443" width="1" x="89" y="0.4698590195679557" />,<rect key="90" fill="#2563EB" height="0.560737543159843" width="1" x="90" y="0.43926245684015697" />,<rect key="91" fill="#2563EB" height="0.5052455393264826" width="1" x="91" y="0.49475446067351736" />,<rect key="92" fill="#2563EB" height="0.13272166546677816" width="1" x="92" y="0.8672783345332218" />,<rect key="93" fill="#2563EB" height="0.0011426331315255748" width="1" x="93" y="0.9988573668684744" />,<rect key="94" fill="#2563EB" height="0.00013288676235264662" width="1" x="94" y="0.9998671132376473" />,<rect key="95" fill="#2563EB" height="0.00001269968309055755" width="1" x="95" y="0.9999873003169094" />,<rect key="96" fill="#2563EB" height="7.814840415287386e-8" width="1" x="96" y="0.9999999218515958" />,<rect key="97" fill="#2563EB" height="0" width="1" x="97" y="1" />,<rect key="98" fill="#2563EB" height="0" width="1" x="98" y="1" />,<rect key="99" fill="#2563EB" height="0" width="1" x="99" y="1" /></svg>