<svg xmlns="http://www.w3.org/2000/svg" preserveAspectRatio="none" viewBox="0 0 100 1"><rect key="0" fill="#2563EB" height="0.042379209801261135" width="1" x="0" y="0.9576207901987389" />,<rect key="1" fill="#2563EB" height="0.1602638565554337" width="1" x="1" y="0.8397361434445663" />,<rect key="2" fill="#2563EB" height="0.18097048268592833" width="1" x="2" y="0.8190295173140717" />,<rect key="3" fill="#2563EB" height="0.16087634907212403" width="1" x="3" y="0.839123650927876" />,<rect key="4" fill="#2563EB" height="0.20991632026785595" width="1" x="4" y="0.790083679732144" />,<rect key="5" fill="#2563EB" height="0.21554177486439557" width="1" x="5" y="0.7844582251356045" />,<rect key="6" fill="#2563EB" height="0.2711505488955095" width="1" x="6" y="0.7288494511044905" />,<rect key="7" fill="#2563EB" height="0.28882659734779925" width="1" x="7" y="0.7111734026522007" />,<rect key="8" fill="#2563EB" height="0.33163237079906827" width="1" x="8" y="0.6683676292009317" />,<rect key="9" fill="#2563EB" height="0.4049737955029515" width="1" x="9" y="0.5950262044970485" />,<rect key="10" fill="#2563EB" height="0.7468299209827587" width="1" x="10" y="0.2531700790172413" />,<rect key="11" fill="#2563EB" height="0.6411363404322156" width="1" x="11" y="0.35886365956778443" />,<rect key="12" fill="#2563EB" height="0.6372531996895593" width="1" x="12" y="0.3627468003104407" />,<rect key="13" fill="#2563EB" height="0.7503232305966656" width="1" x="13" y="0.2496767694033344" />,<rect key="14" fill="#2563EB" height="0.6653659111396929" width="1" x="14" y="0.3346340888603071" />,<rect key="15" fill="#2563EB" height="0.6159314608953113" width="1" x="15" y="0.38406853910468874" />,<rect key="16" fill="#2563EB" height="0.5927981788276453" width="1" x="16" y="0.4072018211723547" />,<rect key="17" fill="#2563EB" height="0.6083118284825438" width="1" x="17" y="0.39168817151745616" />,<rect key="18" fill="#2563EB" height="0.7721916681002658" width="1" x="18" y="0.22780833189973415" />,<rect key="19" fill="#2563EB" height="0.6734610230456268" width="1" x="19" y="0.3265389769543732" />,<rect key="20" fill="#2563EB" height="0.6561843844516108" width="1" x="20" y="0.34381561554838924" />,<rect key="21" fill="#2563EB" height="0.6338918525611605" width="1" x="21" y="0.36610814743883946" />,<rect key="22" fill="#2563EB" height="0.7026592604237527" width="1" x="22" y="0.2973407395762473" />,<rect key="23" fill="#2563EB" height="0.7243815119986124" width="1" x="23" y="0.27561848800138755" />,<rect key="24" fill="#2563EB" height="0.6464444777210433" width="1" x="24" y="0.3535555222789567" />,<rect key="25" fill="#2563EB" height="0.7298594315793566" width="1" x="25" y="0.2701405684206434" />,<rect key="26" fill="#2563EB" height="0.6370079394594137" width="1" x="26" y="0.3629920605405863" />,<rect key="27" fill="#2563EB" height="0.8396959630042244" width="1" x="27" y="0.16030403699577556" />,<rect key="28" fill="#2563EB" height="0.8790200893863653" width="1" x="28" y="0.12097991061363467" />,<rect key="29" fill="#2563EB" height="0.611936372120748" width="1" x="29" y="0.38806362787925197" />,<rect key="30" fill="#2563EB" height="0.6512169621486912" width="1" x="30" y="0.3487830378513088" />,<rect key="31" fill="#2563EB" height="0.6395522736074152" width="1" x="31" y="0.3604477263925848" />,<rect key="32" fill="#2563EB" height="0.6436792960123836" width="1" x="32" y="0.3563207039876164" />,<rect key="33" fill="#2563EB" height="0.7282072745659096" width="1" x="33" y="0.2717927254340904" />,<rect key="34" fill="#2563EB" height="0.7616654100933737" width="1" x="34" y="0.23833458990662626" />,<rect key="35" fill="#2563EB" height="0.8610397152186402" width="1" x="35" y="0.1389602847813598" />,<rect key="36" fill="#2563EB" height="0.8976994891017315" width="1" x="36" y="0.10230051089826853" />,<rect key="37" fill="#2563EB" height="0.7231446874636094" width="1" x="37" y="0.2768553125363906" />,<rect key="38" fill="#2563EB" height="0.7037908598476461" width="1" x="38" y="0.2962091401523539" />,<rect key="39" fill="#2563EB" height="0.6571960688449409" width="1" x="39" y="0.34280393115505914" />,<rect key="40" fill="#2563EB" height="0.6936113004864195" width="1" x="40" y="0.3063886995135805" />,<rect key="41" fill="#2563EB" height="0.6647702389648005" width="1" x="41" y="0.3352297610351995" />,<rect key="42" fill="#2563EB" height="0.6152925646387265" width="1" x="42" y="0.3847074353612735" />,<rect key="43" fill="#2563EB" height="0.7697999143969003" width="1" x="43" y="0.23020008560309968" />,<rect key="44" fill="#2563EB" height="0.8508717636843873" width="1" x="44" y="0.14912823631561267" />,<rect key="45" fill="#2563EB" height="0.8614849598955958" width="1" x="45" y="0.13851504010440419" />,<rect key="46" fill="#2563EB" height="0.7848618137217891" width="1" x="46" y="0.2151381862782109" />,<rect key="47" fill="#2563EB" height="0.8270863094526169" width="1" x="47" y="0.17291369054738315" />,<rect key="48" fill="#2563EB" height="0.8597397328480733" width="1" x="48" y="0.14026026715192674" />,<rect key="49" fill="#2563EB" height="0.8623440689510594" width="1" x="49" y="0.13765593104894058" />,<rect key="50" fill="#2563EB" height="0.8444785237438853" width="1" x="50" y="0.15552147625611468" />,<rect key="51" fill="#2563EB" height="0.8813857327218135" width="1" x="51" y="0.11861426727818647" />,<rect key="52" fill="#2563EB" height="0.8283212794344238" width="1" x="52" y="0.1716787205655762" />,<rect key="53" fill="#2563EB" height="0.8925941780067156" width="1" x="53" y="0.10740582199328441" />,<rect key="54" fill="#2563EB" height="0.8585249287971617" width="1" x="54" y="0.1414750712028383" />,<rect key="55" fill="#2563EB" height="0.8662623678281943" width="1" x="55" y="0.13373763217180568" />,<rect key="56" fill="#2563EB" height="0.9237425004870785" width="1" x="56" y="0.07625749951292149" />,<rect key="57" fill="#2563EB" height="0.8543467719181264" width="1" x="57" y="0.14565322808187364" />,<rect key="58" fill="#2563EB" height="0.9061683892938578" width="1" x="58" y="0.09383161070614221" />,<rect key="59" fill="#2563EB" height="0.8204583132952822" width="1" x="59" y="0.17954168670471782" />,<rect key="60" fill="#2563EB" height="0.9291993545544505" width="1" x="60" y="0.07080064544554954" />,<rect key="61" fill="#2563EB" height="0.8536991126618662" width="1" x="61" y="0.14630088733813384" />,<rect key="62" fill="#2563EB" height="0.8220739120257922" width="1" x="62" y="0.17792608797420784" />,<rect key="63" fill="#2563EB" height="0.8625561203982042" width="1" x="63" y="0.13744387960179583" />,<rect key="64" fill="#2563EB" height="0.9443038746026369" width="1" x="64" y="0.05569612539736313" />,<rect key="65" fill="#2563EB" height="0.9348861066477291" width="1" x="65" y="0.06511389335227091" />,<rect key="66" fill="#2563EB" height="0.8600233910817282" width="1" x="66" y="0.1399766089182718" />,<rect key="67" fill="#2563EB" height="0.7345003470481795" width="1" x="67" y="0.26549965295182054" />,<rect key="68" fill="#2563EB" height="0.8285048452445092" width="1" x="68" y="0.17149515475549082" />,<rect key="69" fill="#2563EB" height="0.8360706369407594" width="1" x="69" y="0.16392936305924055" />,<rect key="70" fill="#2563EB" height="0.8312106411842494" width="1" x="70" y="0.16878935881575063" />,<rect key="71" fill="#2563EB" height="0.9039850430099302" width="1" x="71" y="0.09601495699006979" />,<rect key="72" fill="#2563EB" height="0.971044529726578" width="1" x="72" y="0.028955470273422046" />,<rect key="73" fill="#2563EB" height="0.9799771413924171" width="1" x="73" y="0.020022858607582905" />,<rect key="74" fill="#2563EB" height="0.8929476612829287" width="1" x="74" y="0.10705233871707132" />,<rect key="75" fill="#2563EB" height="0.8587593442458396" width="1" x="75" y="0.14124065575416045" />,<rect key="76" fill="#2563EB" height="0.7079402568636658" width="1" x="76" y="0.2920597431363342" />,<rect key="77" fill="#2563EB" height="0.8339065064193336" width="1" x="77" y="0.16609349358066638" />,<rect key="78" fill="#2563EB" height="0.8448730378507783" width="1" x="78" y="0.15512696214922173" />,<rect key="79" fill="#2563EB" height="0.8206660900179332" width="1" x="79" y="0.17933390998206677" />,<rect key="80" fill="#2563EB" height="0.7911309358985744" width="1" x="80" y="0.20886906410142558" />,<rect key="81" fill="#2563EB" height="0.9642051141169918" width="1" x="81" y="0.035794885883008165" />,<rect key="82" fill="#2563EB" height="1" width="1" x="82" y="0" />,<rect key="83" fill="#2563EB" height="0.9475044628496865" width="1" x="83" y="0.05249553715031352" />,<rect key="84" fill="#2563EB" height="0.9007181746476637" width="1" x="84" y="0.09928182535233632" />,<rect key="85" fill="#2563EB" height="0.8847078659223782" width="1" x="85" y="0.11529213407762184" />,<rect key="86" fill="#2563EB" height="0.9336291396909779" width="1" x="86" y="0.06637086030902206" />,<rect key="87" fill="#2563EB" height="0.8659900836324996" width="1" x="87" y="0.13400991636750037" />,<rect key="88" fill="#2563EB" height="0.9118610355343849" width="1" x="88" y="0.08813896446561509" />,<rect key="89" fill="#2563EB" height="0.8558244051442787" width="1" x="89" y="0.1441755948557213" />,<rect key="90" fill="#2563EB" height="0.9178812893541813" width="1" x="90" y="0.08211871064581866" />,<rect key="91" fill="#2563EB" height="0.9603859296837877" width="1" x="91" y="0.039614070316212335" />,<rect key="92" fill="#2563EB" height="0.6177298732715375" width="1" x="92" y="0.3822701267284625" />,<rect key="93" fill="#2563EB" height="0.1182905023717604" width="1" x="93" y="0.8817094976282396" />,<rect key="94" fill="#2563EB" height="0.041459623746453574" width="1" x="94" y="0.9585403762535464" />,<rect key="95" fill="#2563EB" height="0.017439176284121193" width="1" x="95" y="0.9825608237158788" />,<rect key="96" fill="#2563EB" height="0.007746632629909959" width="1" x="96" y="0.9922533673700901" />,<rect key="97" fill="#2563EB" height="0.0033045994755239207" width="1" x="97" y="0.996695400524476" />,<rect key="98" fill="#2563EB" height="0.0012208128664524056" width="1" x="98" y="0.9987791871335476" />,<rect key="99" fill="#2563EB" height="0.00029584170715110555" width="1" x="99" y="0.9997041582928489" /></svg>