
      <svg xmlns="http://www.w3.org/2000/svg" preserveAspectRatio="none" viewBox="0 0 100 1">
        <rect key="0" fill="#2563EB" height="0.7782331961511084" width="1" x="0" y="0.22176680384889158" />,<rect key="1" fill="#2563EB" height="0.586357560306359" width="1" x="1" y="0.413642439693641" />,<rect key="2" fill="#2563EB" height="0.4994794171913292" width="1" x="2" y="0.5005205828086707" />,<rect key="3" fill="#2563EB" height="0.4595963154099056" width="1" x="3" y="0.5404036845900944" />,<rect key="4" fill="#2563EB" height="0.3996261593820756" width="1" x="4" y="0.6003738406179244" />,<rect key="5" fill="#2563EB" height="0.45354824988796094" width="1" x="5" y="0.5464517501120391" />,<rect key="6" fill="#2563EB" height="0.9230747828416632" width="1" x="6" y="0.07692521715833678" />,<rect key="7" fill="#2563EB" height="0.8603841831954863" width="1" x="7" y="0.13961581680451374" />,<rect key="8" fill="#2563EB" height="0.6554624694605767" width="1" x="8" y="0.34453753053942326" />,<rect key="9" fill="#2563EB" height="0.5253415247024242" width="1" x="9" y="0.47465847529757577" />,<rect key="10" fill="#2563EB" height="0.3814451379994126" width="1" x="10" y="0.6185548620005874" />,<rect key="11" fill="#2563EB" height="0.3987485116325695" width="1" x="11" y="0.6012514883674305" />,<rect key="12" fill="#2563EB" height="0.7388496782974777" width="1" x="12" y="0.2611503217025223" />,<rect key="13" fill="#2563EB" height="0.8075447105664924" width="1" x="13" y="0.19245528943350765" />,<rect key="14" fill="#2563EB" height="0.6417975096320279" width="1" x="14" y="0.35820249036797214" />,<rect key="15" fill="#2563EB" height="0.7896382680191074" width="1" x="15" y="0.21036173198089259" />,<rect key="16" fill="#2563EB" height="0.5162127784108955" width="1" x="16" y="0.4837872215891045" />,<rect key="17" fill="#2563EB" height="0.5809413950262277" width="1" x="17" y="0.41905860497377234" />,<rect key="18" fill="#2563EB" height="0.5238269019525255" width="1" x="18" y="0.47617309804747454" />,<rect key="19" fill="#2563EB" height="0.7119924373601224" width="1" x="19" y="0.2880075626398776" />,<rect key="20" fill="#2563EB" height="0.4045370461339076" width="1" x="20" y="0.5954629538660924" />,<rect key="21" fill="#2563EB" height="0.3880700801433342" width="1" x="21" y="0.6119299198566658" />,<rect key="22" fill="#2563EB" height="0.3080291116895723" width="1" x="22" y="0.6919708883104276" />,<rect key="23" fill="#2563EB" height="0.3690427678264818" width="1" x="23" y="0.6309572321735182" />,<rect key="24" fill="#2563EB" height="0.411129208331175" width="1" x="24" y="0.5888707916688249" />,<rect key="25" fill="#2563EB" height="0.9501402139949452" width="1" x="25" y="0.04985978600505481" />,<rect key="26" fill="#2563EB" height="0.9490839480561121" width="1" x="26" y="0.05091605194388793" />,<rect key="27" fill="#2563EB" height="0.6686578143562228" width="1" x="27" y="0.33134218564377715" />,<rect key="28" fill="#2563EB" height="0.6343724117957963" width="1" x="28" y="0.3656275882042037" />,<rect key="29" fill="#2563EB" height="0.8331969786307051" width="1" x="29" y="0.16680302136929492" />,<rect key="30" fill="#2563EB" height="1" width="1" x="30" y="0" />,<rect key="31" fill="#2563EB" height="0.7671828757167993" width="1" x="31" y="0.23281712428320067" />,<rect key="32" fill="#2563EB" height="0.649027831799988" width="1" x="32" y="0.350972168200012" />,<rect key="33" fill="#2563EB" height="0.4457491734426694" width="1" x="33" y="0.5542508265573306" />,<rect key="34" fill="#2563EB" height="0.29124684697164677" width="1" x="34" y="0.7087531530283533" />,<rect key="35" fill="#2563EB" height="0.3333798855443816" width="1" x="35" y="0.6666201144556184" />,<rect key="36" fill="#2563EB" height="0.4999553286593161" width="1" x="36" y="0.5000446713406839" />,<rect key="37" fill="#2563EB" height="0.7914303577910019" width="1" x="37" y="0.2085696422089981" />,<rect key="38" fill="#2563EB" height="0.5303614184876314" width="1" x="38" y="0.4696385815123686" />,<rect key="39" fill="#2563EB" height="0.4616625813990848" width="1" x="39" y="0.5383374186009152" />,<rect key="40" fill="#2563EB" height="0.9194803677626867" width="1" x="40" y="0.08051963223731329" />,<rect key="41" fill="#2563EB" height="0.6170738098305893" width="1" x="41" y="0.38292619016941065" />,<rect key="42" fill="#2563EB" height="0.5582257184544656" width="1" x="42" y="0.44177428154553444" />,<rect key="43" fill="#2563EB" height="0.8001949189252193" width="1" x="43" y="0.19980508107478068" />,<rect key="44" fill="#2563EB" height="0.7134405303682966" width="1" x="44" y="0.2865594696317034" />,<rect key="45" fill="#2563EB" height="0.593081682047848" width="1" x="45" y="0.40691831795215205" />,<rect key="46" fill="#2563EB" height="0.8189768188367531" width="1" x="46" y="0.1810231811632469" />,<rect key="47" fill="#2563EB" height="0.5176197525573942" width="1" x="47" y="0.48238024744260577" />,<rect key="48" fill="#2563EB" height="0.7159806449150264" width="1" x="48" y="0.28401935508497356" />,<rect key="49" fill="#2563EB" height="0.48314931727438176" width="1" x="49" y="0.5168506827256183" />,<rect key="50" fill="#2563EB" height="0.954259253951332" width="1" x="50" y="0.04574074604866796" />,<rect key="51" fill="#2563EB" height="0.6179245961203571" width="1" x="51" y="0.3820754038796429" />,<rect key="52" fill="#2563EB" height="0.7158855421198066" width="1" x="52" y="0.2841144578801934" />,<rect key="53" fill="#2563EB" height="0.48986006520299596" width="1" x="53" y="0.510139934797004" />,<rect key="54" fill="#2563EB" height="0.45210990236637605" width="1" x="54" y="0.547890097633624" />,<rect key="55" fill="#2563EB" height="0.3878604225024359" width="1" x="55" y="0.6121395774975641" />,<rect key="56" fill="#2563EB" height="0.7817099414815549" width="1" x="56" y="0.21829005851844507" />,<rect key="57" fill="#2563EB" height="0.8920335759396453" width="1" x="57" y="0.10796642406035473" />,<rect key="58" fill="#2563EB" height="0.7203036467149345" width="1" x="58" y="0.2796963532850655" />,<rect key="59" fill="#2563EB" height="0.8806035624793047" width="1" x="59" y="0.11939643752069529" />,<rect key="60" fill="#2563EB" height="0.5570774048364059" width="1" x="60" y="0.4429225951635941" />,<rect key="61" fill="#2563EB" height="0.5209327870284771" width="1" x="61" y="0.4790672129715229" />,<rect key="62" fill="#2563EB" height="0.6808833671249721" width="1" x="62" y="0.3191166328750279" />,<rect key="63" fill="#2563EB" height="0.5904510600742773" width="1" x="63" y="0.4095489399257227" />,<rect key="64" fill="#2563EB" height="0.7205575651350347" width="1" x="64" y="0.27944243486496534" />,<rect key="65" fill="#2563EB" height="0.5753622848238676" width="1" x="65" y="0.42463771517613236" />,<rect key="66" fill="#2563EB" height="0.6116973896780826" width="1" x="66" y="0.3883026103219174" />,<rect key="67" fill="#2563EB" height="0.5237898548199718" width="1" x="67" y="0.47621014518002824" />,<rect key="68" fill="#2563EB" height="0.6452867996433049" width="1" x="68" y="0.35471320035669507" />,<rect key="69" fill="#2563EB" height="0.7834920488697616" width="1" x="69" y="0.21650795113023835" />,<rect key="70" fill="#2563EB" height="0.6325592314379478" width="1" x="70" y="0.3674407685620522" />,<rect key="71" fill="#2563EB" height="0.8969927466946689" width="1" x="71" y="0.10300725330533111" />,<rect key="72" fill="#2563EB" height="0.3588196588746986" width="1" x="72" y="0.6411803411253014" />,<rect key="73" fill="#2563EB" height="0.4463850877399514" width="1" x="73" y="0.5536149122600487" />,<rect key="74" fill="#2563EB" height="0.3446659663994964" width="1" x="74" y="0.6553340336005036" />,<rect key="75" fill="#2563EB" height="0.9576012329210989" width="1" x="75" y="0.04239876707890111" />,<rect key="76" fill="#2563EB" height="0.5869737538801288" width="1" x="76" y="0.41302624611987115" />,<rect key="77" fill="#2563EB" height="0.7309200997837636" width="1" x="77" y="0.2690799002162364" />,<rect key="78" fill="#2563EB" height="0.4738620523574447" width="1" x="78" y="0.5261379476425553" />,<rect key="79" fill="#2563EB" height="0.4527945332274092" width="1" x="79" y="0.5472054667725907" />,<rect key="80" fill="#2563EB" height="0.3866338854664482" width="1" x="80" y="0.6133661145335518" />,<rect key="81" fill="#2563EB" height="0.8158547935416087" width="1" x="81" y="0.18414520645839128" />,<rect key="82" fill="#2563EB" height="0.902814188986896" width="1" x="82" y="0.09718581101310397" />,<rect key="83" fill="#2563EB" height="0.7272975846828044" width="1" x="83" y="0.27270241531719563" />,<rect key="84" fill="#2563EB" height="0.8770471017745738" width="1" x="84" y="0.12295289822542621" />,<rect key="85" fill="#2563EB" height="0.5642107651056864" width="1" x="85" y="0.43578923489431365" />,<rect key="86" fill="#2563EB" height="0.5338725563856555" width="1" x="86" y="0.46612744361434455" />,<rect key="87" fill="#2563EB" height="0.7876492971207867" width="1" x="87" y="0.21235070287921332" />,<rect key="88" fill="#2563EB" height="0.5765873482121615" width="1" x="88" y="0.4234126517878385" />,<rect key="89" fill="#2563EB" height="0.688159655768352" width="1" x="89" y="0.31184034423164797" />,<rect key="90" fill="#2563EB" height="0.5942943908755249" width="1" x="90" y="0.40570560912447506" />,<rect key="91" fill="#2563EB" height="0.6160279581025696" width="1" x="91" y="0.3839720418974304" />,<rect key="92" fill="#2563EB" height="0.5151460371502714" width="1" x="92" y="0.4848539628497286" />,<rect key="93" fill="#2563EB" height="0.42850376041148114" width="1" x="93" y="0.5714962395885188" />,<rect key="94" fill="#2563EB" height="0.5355555371566233" width="1" x="94" y="0.4644444628433767" />,<rect key="95" fill="#2563EB" height="0.5803209271736514" width="1" x="95" y="0.41967907282634864" />,<rect key="96" fill="#2563EB" height="0.8781747349628876" width="1" x="96" y="0.12182526503711244" />,<rect key="97" fill="#2563EB" height="0.3139380374436292" width="1" x="97" y="0.6860619625563709" />,<rect key="98" fill="#2563EB" height="0.19678908709223714" width="1" x="98" y="0.8032109129077629" />,<rect key="99" fill="#2563EB" height="0.02773768460855973" width="1" x="99" y="0.9722623153914403" />
      </svg>
    