
      <svg xmlns="http://www.w3.org/2000/svg" preserveAspectRatio="none" viewBox="0 0 100 1">
        <rect key="0" fill="#2563EB" height="0.8706046034798933" width="1" x="0" y="0.12939539652010668" />,<rect key="1" fill="#2563EB" height="0.9502093431553721" width="1" x="1" y="0.04979065684462791" />,<rect key="2" fill="#2563EB" height="0.7873428661896203" width="1" x="2" y="0.21265713381037965" />,<rect key="3" fill="#2563EB" height="0.809294516021078" width="1" x="3" y="0.19070548397892195" />,<rect key="4" fill="#2563EB" height="0.7453968528107434" width="1" x="4" y="0.2546031471892566" />,<rect key="5" fill="#2563EB" height="0.7081126424249999" width="1" x="5" y="0.29188735757500006" />,<rect key="6" fill="#2563EB" height="0.8450614307808704" width="1" x="6" y="0.15493856921912963" />,<rect key="7" fill="#2563EB" height="0.812887114203947" width="1" x="7" y="0.187112885796053" />,<rect key="8" fill="#2563EB" height="0.6497277268322076" width="1" x="8" y="0.3502722731677924" />,<rect key="9" fill="#2563EB" height="0.8056053158429728" width="1" x="9" y="0.1943946841570272" />,<rect key="10" fill="#2563EB" height="0.6898698565370535" width="1" x="10" y="0.31013014346294654" />,<rect key="11" fill="#2563EB" height="0.8143856649788643" width="1" x="11" y="0.18561433502113567" />,<rect key="12" fill="#2563EB" height="0.9094252006385383" width="1" x="12" y="0.09057479936146173" />,<rect key="13" fill="#2563EB" height="0.9002347796703651" width="1" x="13" y="0.09976522032963486" />,<rect key="14" fill="#2563EB" height="0.9650351612814689" width="1" x="14" y="0.034964838718531066" />,<rect key="15" fill="#2563EB" height="0.7296910357569805" width="1" x="15" y="0.27030896424301953" />,<rect key="16" fill="#2563EB" height="0.8121055138435039" width="1" x="16" y="0.18789448615649607" />,<rect key="17" fill="#2563EB" height="0.89529596544028" width="1" x="17" y="0.10470403455972" />,<rect key="18" fill="#2563EB" height="0.8091499299770883" width="1" x="18" y="0.19085007002291166" />,<rect key="19" fill="#2563EB" height="0.7723273362917822" width="1" x="19" y="0.22767266370821782" />,<rect key="20" fill="#2563EB" height="0.8139070749449728" width="1" x="20" y="0.18609292505502717" />,<rect key="21" fill="#2563EB" height="0.7483384592471689" width="1" x="21" y="0.2516615407528311" />,<rect key="22" fill="#2563EB" height="0.8074353383724585" width="1" x="22" y="0.1925646616275415" />,<rect key="23" fill="#2563EB" height="0.817721411816199" width="1" x="23" y="0.18227858818380105" />,<rect key="24" fill="#2563EB" height="0.7332742137394695" width="1" x="24" y="0.26672578626053045" />,<rect key="25" fill="#2563EB" height="0.7994513047780492" width="1" x="25" y="0.20054869522195085" />,<rect key="26" fill="#2563EB" height="0.7623984663777491" width="1" x="26" y="0.2376015336222509" />,<rect key="27" fill="#2563EB" height="0.763550945337928" width="1" x="27" y="0.236449054662072" />,<rect key="28" fill="#2563EB" height="0.6196687882332638" width="1" x="28" y="0.38033121176673623" />,<rect key="29" fill="#2563EB" height="0.6770367476610802" width="1" x="29" y="0.32296325233891976" />,<rect key="30" fill="#2563EB" height="0.9239697548985638" width="1" x="30" y="0.07603024510143619" />,<rect key="31" fill="#2563EB" height="0.8563728285995329" width="1" x="31" y="0.1436271714004671" />,<rect key="32" fill="#2563EB" height="0.7888768000456029" width="1" x="32" y="0.2111231999543971" />,<rect key="33" fill="#2563EB" height="0.5226846354974046" width="1" x="33" y="0.4773153645025954" />,<rect key="34" fill="#2563EB" height="0.6109016208188497" width="1" x="34" y="0.3890983791811503" />,<rect key="35" fill="#2563EB" height="0.7781927557108114" width="1" x="35" y="0.22180724428918863" />,<rect key="36" fill="#2563EB" height="0.8148095975598005" width="1" x="36" y="0.18519040244019946" />,<rect key="37" fill="#2563EB" height="0.934030548255627" width="1" x="37" y="0.06596945174437296" />,<rect key="38" fill="#2563EB" height="0.852853541990252" width="1" x="38" y="0.14714645800974802" />,<rect key="39" fill="#2563EB" height="0.7227353469895216" width="1" x="39" y="0.2772646530104784" />,<rect key="40" fill="#2563EB" height="0.7344311935380684" width="1" x="40" y="0.2655688064619316" />,<rect key="41" fill="#2563EB" height="0.8905071733478996" width="1" x="41" y="0.10949282665210036" />,<rect key="42" fill="#2563EB" height="0.8045608154053684" width="1" x="42" y="0.1954391845946316" />,<rect key="43" fill="#2563EB" height="0.8870378297771143" width="1" x="43" y="0.11296217022288568" />,<rect key="44" fill="#2563EB" height="0.815202439015074" width="1" x="44" y="0.18479756098492595" />,<rect key="45" fill="#2563EB" height="0.6914975014004212" width="1" x="45" y="0.3085024985995788" />,<rect key="46" fill="#2563EB" height="0.7711215779906004" width="1" x="46" y="0.22887842200939956" />,<rect key="47" fill="#2563EB" height="0.8721722676373141" width="1" x="47" y="0.12782773236268585" />,<rect key="48" fill="#2563EB" height="0.7879177500583036" width="1" x="48" y="0.21208224994169644" />,<rect key="49" fill="#2563EB" height="0.8966677585196939" width="1" x="49" y="0.10333224148030606" />,<rect key="50" fill="#2563EB" height="0.8232963580301867" width="1" x="50" y="0.17670364196981325" />,<rect key="51" fill="#2563EB" height="0.7231994443471155" width="1" x="51" y="0.27680055565288453" />,<rect key="52" fill="#2563EB" height="0.7070454924524386" width="1" x="52" y="0.29295450754756136" />,<rect key="53" fill="#2563EB" height="0.8667520733107812" width="1" x="53" y="0.1332479266892188" />,<rect key="54" fill="#2563EB" height="0.7594740085251105" width="1" x="54" y="0.2405259914748895" />,<rect key="55" fill="#2563EB" height="0.8006666271794127" width="1" x="55" y="0.19933337282058727" />,<rect key="56" fill="#2563EB" height="0.7446259652881738" width="1" x="56" y="0.2553740347118262" />,<rect key="57" fill="#2563EB" height="0.636436344968273" width="1" x="57" y="0.36356365503172705" />,<rect key="58" fill="#2563EB" height="0.6274619716408324" width="1" x="58" y="0.3725380283591676" />,<rect key="59" fill="#2563EB" height="0.8301197656392941" width="1" x="59" y="0.16988023436070587" />,<rect key="60" fill="#2563EB" height="0.6391460357674412" width="1" x="60" y="0.3608539642325588" />,<rect key="61" fill="#2563EB" height="0.7123450040583337" width="1" x="61" y="0.2876549959416663" />,<rect key="62" fill="#2563EB" height="0.9011420422843841" width="1" x="62" y="0.0988579577156159" />,<rect key="63" fill="#2563EB" height="0.5944124074759733" width="1" x="63" y="0.40558759252402665" />,<rect key="64" fill="#2563EB" height="0.7896723553032133" width="1" x="64" y="0.21032764469678666" />,<rect key="65" fill="#2563EB" height="0.8534410419060193" width="1" x="65" y="0.14655895809398067" />,<rect key="66" fill="#2563EB" height="0.7161359399565483" width="1" x="66" y="0.28386406004345166" />,<rect key="67" fill="#2563EB" height="0.5781844731902253" width="1" x="67" y="0.42181552680977474" />,<rect key="68" fill="#2563EB" height="0.650896154359897" width="1" x="68" y="0.349103845640103" />,<rect key="69" fill="#2563EB" height="0.6123698048341125" width="1" x="69" y="0.3876301951658875" />,<rect key="70" fill="#2563EB" height="0.6436318083405745" width="1" x="70" y="0.35636819165942546" />,<rect key="71" fill="#2563EB" height="0.8149782504402331" width="1" x="71" y="0.1850217495597669" />,<rect key="72" fill="#2563EB" height="0.7380007518332755" width="1" x="72" y="0.2619992481667245" />,<rect key="73" fill="#2563EB" height="0.8817759764511772" width="1" x="73" y="0.11822402354882278" />,<rect key="74" fill="#2563EB" height="0.8598857110969876" width="1" x="74" y="0.14011428890301236" />,<rect key="75" fill="#2563EB" height="0.7649388606086132" width="1" x="75" y="0.23506113939138684" />,<rect key="76" fill="#2563EB" height="0.6495364835153681" width="1" x="76" y="0.3504635164846319" />,<rect key="77" fill="#2563EB" height="0.7333053220500942" width="1" x="77" y="0.26669467794990576" />,<rect key="78" fill="#2563EB" height="1" width="1" x="78" y="0" />,<rect key="79" fill="#2563EB" height="0.9387400699839736" width="1" x="79" y="0.061259930016026365" />,<rect key="80" fill="#2563EB" height="0.8396804846501313" width="1" x="80" y="0.16031951534986866" />,<rect key="81" fill="#2563EB" height="0.6996975284793424" width="1" x="81" y="0.3003024715206576" />,<rect key="82" fill="#2563EB" height="0.7635531947799485" width="1" x="82" y="0.23644680522005146" />,<rect key="83" fill="#2563EB" height="0.7422168613604884" width="1" x="83" y="0.25778313863951163" />,<rect key="84" fill="#2563EB" height="0.6401811119754272" width="1" x="84" y="0.35981888802457285" />,<rect key="85" fill="#2563EB" height="0.6582477173732103" width="1" x="85" y="0.3417522826267897" />,<rect key="86" fill="#2563EB" height="0.757638747966826" width="1" x="86" y="0.24236125203317405" />,<rect key="87" fill="#2563EB" height="0.7106535249434424" width="1" x="87" y="0.28934647505655764" />,<rect key="88" fill="#2563EB" height="0.681145868749066" width="1" x="88" y="0.318854131250934" />,<rect key="89" fill="#2563EB" height="0.7844023750622604" width="1" x="89" y="0.2155976249377396" />,<rect key="90" fill="#2563EB" height="0.7684422000686532" width="1" x="90" y="0.23155779993134684" />,<rect key="91" fill="#2563EB" height="0.7394490956040086" width="1" x="91" y="0.2605509043959914" />,<rect key="92" fill="#2563EB" height="0.6011980338880968" width="1" x="92" y="0.3988019661119032" />,<rect key="93" fill="#2563EB" height="0.6183386701291735" width="1" x="93" y="0.38166132987082646" />,<rect key="94" fill="#2563EB" height="0.6712294506703079" width="1" x="94" y="0.3287705493296921" />,<rect key="95" fill="#2563EB" height="0.960261213748816" width="1" x="95" y="0.03973878625118399" />,<rect key="96" fill="#2563EB" height="0.4515775516731082" width="1" x="96" y="0.5484224483268918" />,<rect key="97" fill="#2563EB" height="0.004260193484966647" width="1" x="97" y="0.9957398065150334" />,<rect key="98" fill="#2563EB" height="0.00002229401744814865" width="1" x="98" y="0.9999777059825519" />,<rect key="99" fill="#2563EB" height="8.329228500017436e-7" width="1" x="99" y="0.99999916707715" />
      </svg>
    