
      <svg xmlns="http://www.w3.org/2000/svg" preserveAspectRatio="none" viewBox="0 0 100 1">
        <rect key="0" fill="#2563EB" height="0.14190016225493662" width="1" x="0" y="0.8580998377450634" />,<rect key="1" fill="#2563EB" height="0.13272272853882008" width="1" x="1" y="0.8672772714611799" />,<rect key="2" fill="#2563EB" height="0.18004540000922412" width="1" x="2" y="0.8199545999907759" />,<rect key="3" fill="#2563EB" height="0.2176011199570029" width="1" x="3" y="0.7823988800429971" />,<rect key="4" fill="#2563EB" height="0.41003707794511435" width="1" x="4" y="0.5899629220548857" />,<rect key="5" fill="#2563EB" height="0.417722178608483" width="1" x="5" y="0.582277821391517" />,<rect key="6" fill="#2563EB" height="0.42499812781518104" width="1" x="6" y="0.5750018721848189" />,<rect key="7" fill="#2563EB" height="0.4393190902476278" width="1" x="7" y="0.5606809097523722" />,<rect key="8" fill="#2563EB" height="0.3852938641789273" width="1" x="8" y="0.6147061358210727" />,<rect key="9" fill="#2563EB" height="0.7078783613646169" width="1" x="9" y="0.2921216386353831" />,<rect key="10" fill="#2563EB" height="0.7121085513300506" width="1" x="10" y="0.2878914486699494" />,<rect key="11" fill="#2563EB" height="0.5704701344392042" width="1" x="11" y="0.42952986556079575" />,<rect key="12" fill="#2563EB" height="0.6822026842040322" width="1" x="12" y="0.3177973157959678" />,<rect key="13" fill="#2563EB" height="0.887723860459951" width="1" x="13" y="0.112276139540049" />,<rect key="14" fill="#2563EB" height="0.6954310145300296" width="1" x="14" y="0.30456898546997035" />,<rect key="15" fill="#2563EB" height="0.6957687769804456" width="1" x="15" y="0.3042312230195544" />,<rect key="16" fill="#2563EB" height="0.8065652149026631" width="1" x="16" y="0.19343478509733691" />,<rect key="17" fill="#2563EB" height="0.6374223593952238" width="1" x="17" y="0.36257764060477615" />,<rect key="18" fill="#2563EB" height="0.7151615437705577" width="1" x="18" y="0.28483845622944226" />,<rect key="19" fill="#2563EB" height="0.673287142352396" width="1" x="19" y="0.32671285764760405" />,<rect key="20" fill="#2563EB" height="0.7462136850195656" width="1" x="20" y="0.25378631498043436" />,<rect key="21" fill="#2563EB" height="0.7719192165532992" width="1" x="21" y="0.2280807834467008" />,<rect key="22" fill="#2563EB" height="0.8785117522480629" width="1" x="22" y="0.12148824775193712" />,<rect key="23" fill="#2563EB" height="0.7953987900313606" width="1" x="23" y="0.2046012099686394" />,<rect key="24" fill="#2563EB" height="0.7870174254330623" width="1" x="24" y="0.2129825745669377" />,<rect key="25" fill="#2563EB" height="0.8366062057757262" width="1" x="25" y="0.1633937942242738" />,<rect key="26" fill="#2563EB" height="0.7878250450574115" width="1" x="26" y="0.21217495494258853" />,<rect key="27" fill="#2563EB" height="0.8086380246225803" width="1" x="27" y="0.19136197537741972" />,<rect key="28" fill="#2563EB" height="0.7907726227988635" width="1" x="28" y="0.2092273772011365" />,<rect key="29" fill="#2563EB" height="0.7379432797344652" width="1" x="29" y="0.26205672026553484" />,<rect key="30" fill="#2563EB" height="0.6852497381935978" width="1" x="30" y="0.3147502618064022" />,<rect key="31" fill="#2563EB" height="0.7094474307864609" width="1" x="31" y="0.2905525692135391" />,<rect key="32" fill="#2563EB" height="0.7038343512267166" width="1" x="32" y="0.29616564877328344" />,<rect key="33" fill="#2563EB" height="0.715633215276667" width="1" x="33" y="0.284366784723333" />,<rect key="34" fill="#2563EB" height="0.5569172349052344" width="1" x="34" y="0.44308276509476563" />,<rect key="35" fill="#2563EB" height="0.7938054428379471" width="1" x="35" y="0.20619455716205293" />,<rect key="36" fill="#2563EB" height="0.6327620387964072" width="1" x="36" y="0.36723796120359276" />,<rect key="37" fill="#2563EB" height="0.6885764740185849" width="1" x="37" y="0.3114235259814151" />,<rect key="38" fill="#2563EB" height="0.6865902944500297" width="1" x="38" y="0.3134097055499703" />,<rect key="39" fill="#2563EB" height="0.9258851867757485" width="1" x="39" y="0.07411481322425151" />,<rect key="40" fill="#2563EB" height="0.7541977923515343" width="1" x="40" y="0.24580220764846572" />,<rect key="41" fill="#2563EB" height="0.6547488909271635" width="1" x="41" y="0.3452511090728365" />,<rect key="42" fill="#2563EB" height="0.8463898559614687" width="1" x="42" y="0.15361014403853135" />,<rect key="43" fill="#2563EB" height="0.5398433077346402" width="1" x="43" y="0.4601566922653598" />,<rect key="44" fill="#2563EB" height="1" width="1" x="44" y="0" />,<rect key="45" fill="#2563EB" height="0.7220671570788979" width="1" x="45" y="0.2779328429211021" />,<rect key="46" fill="#2563EB" height="0.7073511672419575" width="1" x="46" y="0.29264883275804254" />,<rect key="47" fill="#2563EB" height="0.7287712107602748" width="1" x="47" y="0.27122878923972515" />,<rect key="48" fill="#2563EB" height="0.9385177591932071" width="1" x="48" y="0.061482240806792876" />,<rect key="49" fill="#2563EB" height="0.6880147150466741" width="1" x="49" y="0.3119852849533259" />,<rect key="50" fill="#2563EB" height="0.7270579126018318" width="1" x="50" y="0.27294208739816817" />,<rect key="51" fill="#2563EB" height="0.6954440586011412" width="1" x="51" y="0.3045559413988588" />,<rect key="52" fill="#2563EB" height="0.6007063561594133" width="1" x="52" y="0.39929364384058674" />,<rect key="53" fill="#2563EB" height="0.8429650655982268" width="1" x="53" y="0.15703493440177319" />,<rect key="54" fill="#2563EB" height="0.7406593214973368" width="1" x="54" y="0.2593406785026632" />,<rect key="55" fill="#2563EB" height="0.7692921322684444" width="1" x="55" y="0.2307078677315556" />,<rect key="56" fill="#2563EB" height="0.7117410530506777" width="1" x="56" y="0.2882589469493223" />,<rect key="57" fill="#2563EB" height="0.7903940472855103" width="1" x="57" y="0.20960595271448967" />,<rect key="58" fill="#2563EB" height="0.72060049917061" width="1" x="58" y="0.27939950082939" />,<rect key="59" fill="#2563EB" height="0.7068971368096654" width="1" x="59" y="0.29310286319033463" />,<rect key="60" fill="#2563EB" height="0.6717164259245832" width="1" x="60" y="0.32828357407541675" />,<rect key="61" fill="#2563EB" height="0.7214800412202871" width="1" x="61" y="0.2785199587797129" />,<rect key="62" fill="#2563EB" height="0.8115477420965411" width="1" x="62" y="0.18845225790345888" />,<rect key="63" fill="#2563EB" height="0.7226665907625739" width="1" x="63" y="0.2773334092374261" />,<rect key="64" fill="#2563EB" height="0.7329910753841368" width="1" x="64" y="0.26700892461586323" />,<rect key="65" fill="#2563EB" height="0.7305456580515729" width="1" x="65" y="0.2694543419484271" />,<rect key="66" fill="#2563EB" height="0.7452718551908014" width="1" x="66" y="0.2547281448091986" />,<rect key="67" fill="#2563EB" height="0.6636788100733317" width="1" x="67" y="0.33632118992666826" />,<rect key="68" fill="#2563EB" height="0.770685300147463" width="1" x="68" y="0.22931469985253705" />,<rect key="69" fill="#2563EB" height="0.6455088896872966" width="1" x="69" y="0.3544911103127034" />,<rect key="70" fill="#2563EB" height="0.5453325495461431" width="1" x="70" y="0.4546674504538569" />,<rect key="71" fill="#2563EB" height="0.48989829673978846" width="1" x="71" y="0.5101017032602115" />,<rect key="72" fill="#2563EB" height="0.36310751810238007" width="1" x="72" y="0.6368924818976199" />,<rect key="73" fill="#2563EB" height="0.2605697277851659" width="1" x="73" y="0.739430272214834" />,<rect key="74" fill="#2563EB" height="0.2776932923688474" width="1" x="74" y="0.7223067076311527" />,<rect key="75" fill="#2563EB" height="0.1768354330654706" width="1" x="75" y="0.8231645669345294" />,<rect key="76" fill="#2563EB" height="0.3256846957017379" width="1" x="76" y="0.6743153042982621" />,<rect key="77" fill="#2563EB" height="0.2724407928096604" width="1" x="77" y="0.7275592071903396" />,<rect key="78" fill="#2563EB" height="0.15206864444826426" width="1" x="78" y="0.8479313555517357" />,<rect key="79" fill="#2563EB" height="0.2335761406482443" width="1" x="79" y="0.7664238593517557" />,<rect key="80" fill="#2563EB" height="0.3991266088543059" width="1" x="80" y="0.600873391145694" />,<rect key="81" fill="#2563EB" height="0.21604297437879896" width="1" x="81" y="0.7839570256212011" />,<rect key="82" fill="#2563EB" height="0.14216507275456738" width="1" x="82" y="0.8578349272454326" />,<rect key="83" fill="#2563EB" height="0.24439926660174796" width="1" x="83" y="0.7556007333982521" />,<rect key="84" fill="#2563EB" height="0.5446759441690404" width="1" x="84" y="0.4553240558309596" />,<rect key="85" fill="#2563EB" height="0.29457684674979917" width="1" x="85" y="0.7054231532502009" />,<rect key="86" fill="#2563EB" height="0.125909570083126" width="1" x="86" y="0.874090429916874" />,<rect key="87" fill="#2563EB" height="0.19076564124984552" width="1" x="87" y="0.8092343587501545" />,<rect key="88" fill="#2563EB" height="0.5047492860439801" width="1" x="88" y="0.49525071395601994" />,<rect key="89" fill="#2563EB" height="0.39469834109253227" width="1" x="89" y="0.6053016589074678" />,<rect key="90" fill="#2563EB" height="0.21487078556348108" width="1" x="90" y="0.785129214436519" />,<rect key="91" fill="#2563EB" height="0.21215441620009767" width="1" x="91" y="0.7878455837999023" />,<rect key="92" fill="#2563EB" height="0.18599501499683527" width="1" x="92" y="0.8140049850031648" />,<rect key="93" fill="#2563EB" height="0.16503508675651038" width="1" x="93" y="0.8349649132434896" />,<rect key="94" fill="#2563EB" height="0.007668853751281497" width="1" x="94" y="0.9923311462487185" />,<rect key="95" fill="#2563EB" height="0.00001260571311333128" width="1" x="95" y="0.9999873942868867" />,<rect key="96" fill="#2563EB" height="0" width="1" x="96" y="1" />,<rect key="97" fill="#2563EB" height="0" width="1" x="97" y="1" />,<rect key="98" fill="#2563EB" height="0" width="1" x="98" y="1" />,<rect key="99" fill="#2563EB" height="0" width="1" x="99" y="1" />
      </svg>
    