
      <svg xmlns="http://www.w3.org/2000/svg" preserveAspectRatio="none" viewBox="0 0 100 1">
        <rect key="0" fill="#2563EB" height="0.817776663046086" width="1" x="0" y="0.18222333695391402" />,<rect key="1" fill="#2563EB" height="0.8469659217327917" width="1" x="1" y="0.15303407826720827" />,<rect key="2" fill="#2563EB" height="0.8068659285362775" width="1" x="2" y="0.19313407146372252" />,<rect key="3" fill="#2563EB" height="0.8445754103184813" width="1" x="3" y="0.15542458968151873" />,<rect key="4" fill="#2563EB" height="0.7834050256853478" width="1" x="4" y="0.21659497431465224" />,<rect key="5" fill="#2563EB" height="0.9786947490363241" width="1" x="5" y="0.02130525096367586" />,<rect key="6" fill="#2563EB" height="0.7169695394778771" width="1" x="6" y="0.2830304605221229" />,<rect key="7" fill="#2563EB" height="0.7793344913021495" width="1" x="7" y="0.2206655086978505" />,<rect key="8" fill="#2563EB" height="0.8342212833657843" width="1" x="8" y="0.16577871663421573" />,<rect key="9" fill="#2563EB" height="0.9166908391615323" width="1" x="9" y="0.08330916083846773" />,<rect key="10" fill="#2563EB" height="0.9001716674395134" width="1" x="10" y="0.09982833256048662" />,<rect key="11" fill="#2563EB" height="0.747440971990495" width="1" x="11" y="0.252559028009505" />,<rect key="12" fill="#2563EB" height="0.8742120473417494" width="1" x="12" y="0.1257879526582506" />,<rect key="13" fill="#2563EB" height="0.8637605751153562" width="1" x="13" y="0.1362394248846438" />,<rect key="14" fill="#2563EB" height="0.7386154390771509" width="1" x="14" y="0.2613845609228491" />,<rect key="15" fill="#2563EB" height="0.7297757887855547" width="1" x="15" y="0.2702242112144453" />,<rect key="16" fill="#2563EB" height="0.79657000224292" width="1" x="16" y="0.20342999775708004" />,<rect key="17" fill="#2563EB" height="0.7860055924464383" width="1" x="17" y="0.2139944075535617" />,<rect key="18" fill="#2563EB" height="0.7795359596987458" width="1" x="18" y="0.22046404030125422" />,<rect key="19" fill="#2563EB" height="0.8246662319059764" width="1" x="19" y="0.17533376809402357" />,<rect key="20" fill="#2563EB" height="0.9054599660790589" width="1" x="20" y="0.09454003392094112" />,<rect key="21" fill="#2563EB" height="0.8740438210737811" width="1" x="21" y="0.1259561789262189" />,<rect key="22" fill="#2563EB" height="0.8620669690624081" width="1" x="22" y="0.1379330309375919" />,<rect key="23" fill="#2563EB" height="0.8142608937127326" width="1" x="23" y="0.18573910628726742" />,<rect key="24" fill="#2563EB" height="0.7478673826975859" width="1" x="24" y="0.2521326173024141" />,<rect key="25" fill="#2563EB" height="0.7181600895028359" width="1" x="25" y="0.28183991049716406" />,<rect key="26" fill="#2563EB" height="0.7377595300234013" width="1" x="26" y="0.26224046997659867" />,<rect key="27" fill="#2563EB" height="0.7446395318201933" width="1" x="27" y="0.25536046817980673" />,<rect key="28" fill="#2563EB" height="0.8222686054222254" width="1" x="28" y="0.17773139457777465" />,<rect key="29" fill="#2563EB" height="0.9422399437630218" width="1" x="29" y="0.05776005623697822" />,<rect key="30" fill="#2563EB" height="0.8138149385471289" width="1" x="30" y="0.18618506145287106" />,<rect key="31" fill="#2563EB" height="0.8796887713999058" width="1" x="31" y="0.12031122860009424" />,<rect key="32" fill="#2563EB" height="0.7772208575801541" width="1" x="32" y="0.22277914241984587" />,<rect key="33" fill="#2563EB" height="0.9945245750467512" width="1" x="33" y="0.00547542495324882" />,<rect key="34" fill="#2563EB" height="0.9074949535688133" width="1" x="34" y="0.09250504643118673" />,<rect key="35" fill="#2563EB" height="0.8902654891085797" width="1" x="35" y="0.10973451089142028" />,<rect key="36" fill="#2563EB" height="0.9143663341896008" width="1" x="36" y="0.08563366581039922" />,<rect key="37" fill="#2563EB" height="0.8659559805691949" width="1" x="37" y="0.13404401943080513" />,<rect key="38" fill="#2563EB" height="0.8104650342906949" width="1" x="38" y="0.18953496570930506" />,<rect key="39" fill="#2563EB" height="0.8650485876559534" width="1" x="39" y="0.13495141234404662" />,<rect key="40" fill="#2563EB" height="0.7539098348022462" width="1" x="40" y="0.24609016519775384" />,<rect key="41" fill="#2563EB" height="0.7800311602639779" width="1" x="41" y="0.2199688397360221" />,<rect key="42" fill="#2563EB" height="0.7761994198315825" width="1" x="42" y="0.22380058016841753" />,<rect key="43" fill="#2563EB" height="0.89121278036909" width="1" x="43" y="0.10878721963090998" />,<rect key="44" fill="#2563EB" height="0.9922938530068531" width="1" x="44" y="0.007706146993146867" />,<rect key="45" fill="#2563EB" height="0.7519747442634903" width="1" x="45" y="0.2480252557365097" />,<rect key="46" fill="#2563EB" height="0.6814172670293327" width="1" x="46" y="0.3185827329706673" />,<rect key="47" fill="#2563EB" height="0.8154084133686105" width="1" x="47" y="0.18459158663138953" />,<rect key="48" fill="#2563EB" height="0.7819179972184489" width="1" x="48" y="0.2180820027815511" />,<rect key="49" fill="#2563EB" height="0.9085516309915486" width="1" x="49" y="0.09144836900845144" />,<rect key="50" fill="#2563EB" height="0.8696808604883044" width="1" x="50" y="0.1303191395116956" />,<rect key="51" fill="#2563EB" height="0.7242732846419841" width="1" x="51" y="0.27572671535801585" />,<rect key="52" fill="#2563EB" height="0.8868939595469494" width="1" x="52" y="0.11310604045305062" />,<rect key="53" fill="#2563EB" height="0.6936720564867729" width="1" x="53" y="0.3063279435132271" />,<rect key="54" fill="#2563EB" height="0.7182361415605453" width="1" x="54" y="0.28176385843945473" />,<rect key="55" fill="#2563EB" height="0.7463007040805707" width="1" x="55" y="0.2536992959194293" />,<rect key="56" fill="#2563EB" height="0.8429645665718707" width="1" x="56" y="0.1570354334281293" />,<rect key="57" fill="#2563EB" height="0.9602698727910413" width="1" x="57" y="0.03973012720895874" />,<rect key="58" fill="#2563EB" height="0.7703490169063895" width="1" x="58" y="0.22965098309361054" />,<rect key="59" fill="#2563EB" height="0.7389552978754107" width="1" x="59" y="0.2610447021245893" />,<rect key="60" fill="#2563EB" height="0.8197630477578725" width="1" x="60" y="0.18023695224212755" />,<rect key="61" fill="#2563EB" height="0.7801193697988366" width="1" x="61" y="0.21988063020116344" />,<rect key="62" fill="#2563EB" height="0.8820477003060095" width="1" x="62" y="0.11795229969399046" />,<rect key="63" fill="#2563EB" height="0.775690656084873" width="1" x="63" y="0.22430934391512702" />,<rect key="64" fill="#2563EB" height="0.8023878249774108" width="1" x="64" y="0.1976121750225892" />,<rect key="65" fill="#2563EB" height="0.8073182999388798" width="1" x="65" y="0.19268170006112018" />,<rect key="66" fill="#2563EB" height="0.6978812086310742" width="1" x="66" y="0.30211879136892583" />,<rect key="67" fill="#2563EB" height="0.880238969246922" width="1" x="67" y="0.11976103075307798" />,<rect key="68" fill="#2563EB" height="0.8391216021602838" width="1" x="68" y="0.16087839783971625" />,<rect key="69" fill="#2563EB" height="0.8112079816356615" width="1" x="69" y="0.18879201836433845" />,<rect key="70" fill="#2563EB" height="0.7993291191292561" width="1" x="70" y="0.20067088087074392" />,<rect key="71" fill="#2563EB" height="0.7653882798741346" width="1" x="71" y="0.2346117201258654" />,<rect key="72" fill="#2563EB" height="0.7626503276366337" width="1" x="72" y="0.23734967236336635" />,<rect key="73" fill="#2563EB" height="0.9356781677521123" width="1" x="73" y="0.06432183224788768" />,<rect key="74" fill="#2563EB" height="0.6977250367050343" width="1" x="74" y="0.3022749632949657" />,<rect key="75" fill="#2563EB" height="0.8498204115856133" width="1" x="75" y="0.15017958841438672" />,<rect key="76" fill="#2563EB" height="0.8316567015923534" width="1" x="76" y="0.1683432984076466" />,<rect key="77" fill="#2563EB" height="0.6869642552725229" width="1" x="77" y="0.3130357447274771" />,<rect key="78" fill="#2563EB" height="0.7538696137588065" width="1" x="78" y="0.24613038624119354" />,<rect key="79" fill="#2563EB" height="0.8394773246294103" width="1" x="79" y="0.16052267537058973" />,<rect key="80" fill="#2563EB" height="0.752418852433802" width="1" x="80" y="0.24758114756619798" />,<rect key="81" fill="#2563EB" height="1" width="1" x="81" y="0" />,<rect key="82" fill="#2563EB" height="0.8236792646685713" width="1" x="82" y="0.17632073533142867" />,<rect key="83" fill="#2563EB" height="0.8643884061753062" width="1" x="83" y="0.1356115938246938" />,<rect key="84" fill="#2563EB" height="0.8634695781399422" width="1" x="84" y="0.13653042186005782" />,<rect key="85" fill="#2563EB" height="0.7571003653789966" width="1" x="85" y="0.2428996346210034" />,<rect key="86" fill="#2563EB" height="0.7475270925370218" width="1" x="86" y="0.25247290746297824" />,<rect key="87" fill="#2563EB" height="0.7975603414665322" width="1" x="87" y="0.2024396585334678" />,<rect key="88" fill="#2563EB" height="0.8949060271604216" width="1" x="88" y="0.10509397283957844" />,<rect key="89" fill="#2563EB" height="0.9707844614449886" width="1" x="89" y="0.029215538555011356" />,<rect key="90" fill="#2563EB" height="0.825175864408933" width="1" x="90" y="0.17482413559106702" />,<rect key="91" fill="#2563EB" height="0.8870089258209285" width="1" x="91" y="0.1129910741790715" />,<rect key="92" fill="#2563EB" height="0.8853148025944265" width="1" x="92" y="0.11468519740557348" />,<rect key="93" fill="#2563EB" height="0.7488664764013565" width="1" x="93" y="0.2511335235986435" />,<rect key="94" fill="#2563EB" height="0.8685500356217649" width="1" x="94" y="0.13144996437823508" />,<rect key="95" fill="#2563EB" height="0.8450008952554908" width="1" x="95" y="0.15499910474450918" />,<rect key="96" fill="#2563EB" height="0.9150543099788336" width="1" x="96" y="0.08494569002116636" />,<rect key="97" fill="#2563EB" height="0.13992580678702934" width="1" x="97" y="0.8600741932129706" />,<rect key="98" fill="#2563EB" height="0.015277200657837666" width="1" x="98" y="0.9847227993421623" />,<rect key="99" fill="#2563EB" height="1.9820788755205326e-8" width="1" x="99" y="0.9999999801792112" />
      </svg>
    