<svg xmlns="http://www.w3.org/2000/svg" preserveAspectRatio="none" viewBox="0 0 100 1"><rect key="0" fill="#2563EB" height="0.0000607382261438253" width="1" x="0" y="0.9999392617738562" />,<rect key="1" fill="#2563EB" height="0.6112124435590109" width="1" x="1" y="0.38878755644098906" />,<rect key="2" fill="#2563EB" height="0.6486876820222008" width="1" x="2" y="0.35131231797779916" />,<rect key="3" fill="#2563EB" height="0.7889844169062735" width="1" x="3" y="0.21101558309372648" />,<rect key="4" fill="#2563EB" height="0.6807136385389604" width="1" x="4" y="0.3192863614610396" />,<rect key="5" fill="#2563EB" height="0.7703769439631589" width="1" x="5" y="0.22962305603684108" />,<rect key="6" fill="#2563EB" height="0.6889637509864955" width="1" x="6" y="0.31103624901350446" />,<rect key="7" fill="#2563EB" height="0.7135192920947656" width="1" x="7" y="0.2864807079052344" />,<rect key="8" fill="#2563EB" height="0.7689542217516482" width="1" x="8" y="0.23104577824835182" />,<rect key="9" fill="#2563EB" height="0.8035405950378234" width="1" x="9" y="0.19645940496217662" />,<rect key="10" fill="#2563EB" height="0.8555958398430265" width="1" x="10" y="0.14440416015697355" />,<rect key="11" fill="#2563EB" height="0.7519218929435662" width="1" x="11" y="0.24807810705643385" />,<rect key="12" fill="#2563EB" height="0.8814845636532933" width="1" x="12" y="0.11851543634670669" />,<rect key="13" fill="#2563EB" height="0.7704032750757385" width="1" x="13" y="0.22959672492426153" />,<rect key="14" fill="#2563EB" height="0.8602085746534941" width="1" x="14" y="0.1397914253465059" />,<rect key="15" fill="#2563EB" height="0.817657285024144" width="1" x="15" y="0.18234271497585597" />,<rect key="16" fill="#2563EB" height="0.9354369293497888" width="1" x="16" y="0.06456307065021116" />,<rect key="17" fill="#2563EB" height="0.9239995850140531" width="1" x="17" y="0.0760004149859469" />,<rect key="18" fill="#2563EB" height="0.9032878775104968" width="1" x="18" y="0.09671212248950323" />,<rect key="19" fill="#2563EB" height="0.9122114350032947" width="1" x="19" y="0.08778856499670529" />,<rect key="20" fill="#2563EB" height="0.9222073836942888" width="1" x="20" y="0.07779261630571122" />,<rect key="21" fill="#2563EB" height="0.9646577136882317" width="1" x="21" y="0.03534228631176828" />,<rect key="22" fill="#2563EB" height="0.9431828903611427" width="1" x="22" y="0.05681710963885733" />,<rect key="23" fill="#2563EB" height="0.8946502277347335" width="1" x="23" y="0.10534977226526654" />,<rect key="24" fill="#2563EB" height="0.9564921722274133" width="1" x="24" y="0.04350782777258666" />,<rect key="25" fill="#2563EB" height="0.9390062185187686" width="1" x="25" y="0.06099378148123136" />,<rect key="26" fill="#2563EB" height="0.9608435687525622" width="1" x="26" y="0.03915643124743784" />,<rect key="27" fill="#2563EB" height="0.9256060933619754" width="1" x="27" y="0.07439390663802459" />,<rect key="28" fill="#2563EB" height="0.952618323325897" width="1" x="28" y="0.04738167667410298" />,<rect key="29" fill="#2563EB" height="0.9395677913269186" width="1" x="29" y="0.06043220867308141" />,<rect key="30" fill="#2563EB" height="0.9286405875263569" width="1" x="30" y="0.07135941247364308" />,<rect key="31" fill="#2563EB" height="0.9217244220761208" width="1" x="31" y="0.07827557792387918" />,<rect key="32" fill="#2563EB" height="0.9222850448484761" width="1" x="32" y="0.07771495515152393" />,<rect key="33" fill="#2563EB" height="0.9955732005585601" width="1" x="33" y="0.004426799441439866" />,<rect key="34" fill="#2563EB" height="0.9419670761877141" width="1" x="34" y="0.058032923812285864" />,<rect key="35" fill="#2563EB" height="0.9844049577134971" width="1" x="35" y="0.01559504228650288" />,<rect key="36" fill="#2563EB" height="0.9912106095767224" width="1" x="36" y="0.008789390423277643" />,<rect key="37" fill="#2563EB" height="0.9465961387765989" width="1" x="37" y="0.05340386122340113" />,<rect key="38" fill="#2563EB" height="0.9311259378479436" width="1" x="38" y="0.06887406215205638" />,<rect key="39" fill="#2563EB" height="0.9175388759440942" width="1" x="39" y="0.08246112405590578" />,<rect key="40" fill="#2563EB" height="0.9860042048125042" width="1" x="40" y="0.01399579518749583" />,<rect key="41" fill="#2563EB" height="0.9436638258478924" width="1" x="41" y="0.056336174152107565" />,<rect key="42" fill="#2563EB" height="0.9641567330414667" width="1" x="42" y="0.03584326695853335" />,<rect key="43" fill="#2563EB" height="0.9250989246608865" width="1" x="43" y="0.0749010753391135" />,<rect key="44" fill="#2563EB" height="0.9692414997175577" width="1" x="44" y="0.030758500282442314" />,<rect key="45" fill="#2563EB" height="0.9322629620432048" width="1" x="45" y="0.0677370379567952" />,<rect key="46" fill="#2563EB" height="0.9184827364098629" width="1" x="46" y="0.08151726359013711" />,<rect key="47" fill="#2563EB" height="0.9886957277369403" width="1" x="47" y="0.011304272263059745" />,<rect key="48" fill="#2563EB" height="0.9545935337295722" width="1" x="48" y="0.04540646627042777" />,<rect key="49" fill="#2563EB" height="0.958068753658168" width="1" x="49" y="0.041931246341831985" />,<rect key="50" fill="#2563EB" height="0.946883193379537" width="1" x="50" y="0.05311680662046303" />,<rect key="51" fill="#2563EB" height="0.4863539946304831" width="1" x="51" y="0.5136460053695169" />,<rect key="52" fill="#2563EB" height="0.39344117835524983" width="1" x="52" y="0.6065588216447502" />,<rect key="53" fill="#2563EB" height="0.4281580400625518" width="1" x="53" y="0.5718419599374482" />,<rect key="54" fill="#2563EB" height="0.4176849784845997" width="1" x="54" y="0.5823150215154003" />,<rect key="55" fill="#2563EB" height="0.4131677772966319" width="1" x="55" y="0.5868322227033681" />,<rect key="56" fill="#2563EB" height="0.44055855279129386" width="1" x="56" y="0.5594414472087061" />,<rect key="57" fill="#2563EB" height="0.3769965341413213" width="1" x="57" y="0.6230034658586787" />,<rect key="58" fill="#2563EB" height="0.9427257540764518" width="1" x="58" y="0.05727424592354824" />,<rect key="59" fill="#2563EB" height="0.8879567626395836" width="1" x="59" y="0.11204323736041644" />,<rect key="60" fill="#2563EB" height="0.912221327860739" width="1" x="60" y="0.08777867213926105" />,<rect key="61" fill="#2563EB" height="0.8755398158308149" width="1" x="61" y="0.12446018416918514" />,<rect key="62" fill="#2563EB" height="0.8679544203758071" width="1" x="62" y="0.13204557962419294" />,<rect key="63" fill="#2563EB" height="0.9443914045007459" width="1" x="63" y="0.05560859549925412" />,<rect key="64" fill="#2563EB" height="1" width="1" x="64" y="0" />,<rect key="65" fill="#2563EB" height="0.9624441513417737" width="1" x="65" y="0.037555848658226254" />,<rect key="66" fill="#2563EB" height="0.908424482450664" width="1" x="66" y="0.09157551754933602" />,<rect key="67" fill="#2563EB" height="0.8996815040201424" width="1" x="67" y="0.10031849597985765" />,<rect key="68" fill="#2563EB" height="0.9411388750635641" width="1" x="68" y="0.058861124936435916" />,<rect key="69" fill="#2563EB" height="0.8750429696524485" width="1" x="69" y="0.12495703034755146" />,<rect key="70" fill="#2563EB" height="0.9010516727248732" width="1" x="70" y="0.09894832727512681" />,<rect key="71" fill="#2563EB" height="0.9089644586700227" width="1" x="71" y="0.09103554132997727" />,<rect key="72" fill="#2563EB" height="0.9052051945338159" width="1" x="72" y="0.09479480546618413" />,<rect key="73" fill="#2563EB" height="0.8564131970540704" width="1" x="73" y="0.14358680294592963" />,<rect key="74" fill="#2563EB" height="0.8701502075675002" width="1" x="74" y="0.12984979243249983" />,<rect key="75" fill="#2563EB" height="0.9184374208482791" width="1" x="75" y="0.08156257915172094" />,<rect key="76" fill="#2563EB" height="0.8725154922564311" width="1" x="76" y="0.1274845077435689" />,<rect key="77" fill="#2563EB" height="0.9293506105954699" width="1" x="77" y="0.07064938940453014" />,<rect key="78" fill="#2563EB" height="0.885174600810659" width="1" x="78" y="0.11482539918934098" />,<rect key="79" fill="#2563EB" height="0.9065153044918003" width="1" x="79" y="0.09348469550819971" />,<rect key="80" fill="#2563EB" height="0.8952292249339521" width="1" x="80" y="0.10477077506604793" />,<rect key="81" fill="#2563EB" height="0.9011413111299411" width="1" x="81" y="0.09885868887005889" />,<rect key="82" fill="#2563EB" height="0.9099510793918892" width="1" x="82" y="0.09004892060811076" />,<rect key="83" fill="#2563EB" height="0.9049893627470593" width="1" x="83" y="0.09501063725294068" />,<rect key="84" fill="#2563EB" height="0.9516088535858142" width="1" x="84" y="0.04839114641418585" />,<rect key="85" fill="#2563EB" height="0.9464141848571896" width="1" x="85" y="0.053585815142810356" />,<rect key="86" fill="#2563EB" height="0.9296458174661725" width="1" x="86" y="0.07035418253382753" />,<rect key="87" fill="#2563EB" height="0.9055599115530999" width="1" x="87" y="0.0944400884469001" />,<rect key="88" fill="#2563EB" height="0.9296759875852005" width="1" x="88" y="0.07032401241479946" />,<rect key="89" fill="#2563EB" height="0.9314450873202851" width="1" x="89" y="0.06855491267971492" />,<rect key="90" fill="#2563EB" height="0.9361014318827434" width="1" x="90" y="0.06389856811725658" />,<rect key="91" fill="#2563EB" height="0.9538819485587143" width="1" x="91" y="0.04611805144128567" />,<rect key="92" fill="#2563EB" height="0.9573208023977678" width="1" x="92" y="0.042679197602232155" />,<rect key="93" fill="#2563EB" height="0.9195744832394687" width="1" x="93" y="0.08042551676053133" />,<rect key="94" fill="#2563EB" height="0.9269957327084203" width="1" x="94" y="0.07300426729157972" />,<rect key="95" fill="#2563EB" height="0.9425935422069702" width="1" x="95" y="0.057406457793029775" />,<rect key="96" fill="#2563EB" height="0.9614289618946327" width="1" x="96" y="0.03857103810536733" />,<rect key="97" fill="#2563EB" height="0.5984542501261844" width="1" x="97" y="0.40154574987381564" />,<rect key="98" fill="#2563EB" height="0.2203845961470905" width="1" x="98" y="0.7796154038529095" />,<rect key="99" fill="#2563EB" height="0.030559550315421527" width="1" x="99" y="0.9694404496845784" /></svg>